<mxfile host="app.diagrams.net" modified="2022-05-24T14:53:00.949Z" agent="5.0 (X11; Linux x86_64) AppleWebKit/537.36 (KHTML, like Gecko) Chrome/97.0.4692.99 Safari/537.36 OPR/83.0.4254.27" etag="fvIKCLvGE45ECfXAtg_Q" version="18.1.2" type="github">
  <diagram id="f2NtUgK8NRknTUMXO1Bz" name="Page-1">
    <mxGraphModel dx="1060" dy="1113" grid="1" gridSize="10" guides="1" tooltips="1" connect="1" arrows="1" fold="1" page="1" pageScale="1" pageWidth="850" pageHeight="1100" math="0" shadow="0">
      <root>
        <mxCell id="0" />
        <mxCell id="1" parent="0" />
        <mxCell id="ZsFiNb4aICeP-5Nhd5WZ-2" value="" style="rounded=0;whiteSpace=wrap;html=1;fillColor=#66FFFF;strokeColor=#36393d;" vertex="1" parent="1">
          <mxGeometry x="305" y="280" width="120" height="60" as="geometry" />
        </mxCell>
        <mxCell id="ZsFiNb4aICeP-5Nhd5WZ-3" value="" style="shape=image;verticalLabelPosition=bottom;labelBackgroundColor=default;verticalAlign=top;aspect=fixed;imageAspect=0;image=data:image/jpeg,/9j/4AAQSkZJRgABAQAAAQABAAD/2wCEAAkGBwgHBgkIBwgKCgkLDRYPDQwMDRsUFRAWIB0iIiAdHx8kKDQsJCYxJx8fLT0tMTU3Ojo6Iys/RD84QzQ5OjcBCgoKDQwNGg8PGjclHyU3Nzc3Nzc3Nzc3Nzc3Nzc3Nzc3Nzc3Nzc3Nzc3Nzc3Nzc3Nzc3Nzc3Nzc3Nzc3Nzc3N//AABEIAIIAggMBEQACEQEDEQH/xAAbAAACAgMBAAAAAAAAAAAAAAAABwUGAQIEA//EAEAQAAEDAgIFBQwKAwEBAAAAAAEAAgMEBQYREiExQVEHE2FxgRY0UlNzkZKTobHB0RQiIzIzNUJUYoMVQ3LhJP/EABoBAQACAwEAAAAAAAAAAAAAAAAEBQIDBgH/xAAxEQACAQMCBAQGAQUBAQAAAAAAAQIDBBESMQUTIVEyQVJxFBUiMzShkUJhgbHR8CP/2gAMAwEAAhEDEQA/AHigNXODRmSgOOat0diAi6u/U1O4iWpja4btLM+ZZKEnsjTUuKVPxSRxnFVCP959ArPkz7Gn5hb+r9GO6uh8c70CnJn2PPmFv6v0w7q6HxzvQKcmfYfMLf1fph3V0PjnegU5M+w+YW/q/TDurofHO9ApyZ9h8wt/V+mHdXQ+Od6BTkz7D5hb+r9MO6uh8c70CnJn2HzC39X6Yd1dD48+gU5M+w+YW/q/TOiDElHKQG1TATucdH3rx0prdGyN5Ql0UkSsNeHZa8x71rJJ3RyteNW1AeiAEBhx0WkoCHudeyCN8krwxjRmSdy9SbeEYznGEXKT6IoF3xBUVr3Mhc6KDPYD9Z3X8lMhRUd9znrniE6r0w6R/ZEaS3FfkNJMDIaSYAaSYAaSYAaSYAaSYAaSYAaXWmBkNJBk7Lfdqm3uzhkzZvjdsPyWE6cZrqSaF3UoP6X07F8sd4ir4RJE7Jw1OYTraVCnBweGdFb3MLiGqJY4ZOcbnvWBIPRActbLosyQC0xddDUVhpI3fZRH638nf+KZQhhajnuKXOufKjst/crj5ms6+AUnBUuWDxdUPOzUEwYa2ac9J4ZXuDzUw56TwymBqYc9J4ZTA1MOek8MpgamHPSeGUwNTDnpPDKYGphz0nhlMDUw56TwymBqZsKiQb815g91s9WVAdt1FMGSkiQtNxdbq2OdpOhnlI0b2rXUhrWCVbXLoVFPy8xrWycPa0g5g7FXHWpprKJRD0irtJzbHuOxozRHjeFkTFRUOlkfK45ve4uPWVapYRw86jk3J7s5zr2r01mEAIAQAgBACAEAIAQAgMoD0jkOw9iGSYz8E1Lp7RTlxzczNh7Dq9irqyxNnW8Om520c+XQuA2BaicQmIu86nyTvcVlHdGur9uXsJdWhwxhACAyh7gEAIeGEAIAQGUPcGEAIeAgMoBk8npztI8q5QLj7h1XCfxl7svQ2BaCzITEXedT5J3uKyjujXW+3L2EsrQ4Y9IYpJ5WRQsc+R50WtaMySjaW5lCDk0kMLD/ACfRNjZPenF7yM/o7HZBvWRtPUoc7h7RL+14RFJSrfwXCls1rpGhtPb6ZmW8RDPz7VHc5PdltC3pQ8MUv8BVWe11LS2ot9LJn4UTc/PkinJbMTt6M/FFFVvfJ7Szxuks7zTyj/U9xcx3btHtW+Fy14isueEQks0ujF1WUlRQ1D6eridFMw5Oa5TIyUllHP1KUqctMlhniASQACSdgC9MEmy8YcwDLUxsqrw50MZ1inb98j+R3e/qUWpcY6RLu04S5LVW6Lt5l2ocO2aiYGwW6n1fqezTd5zrUZ1JvdlxTs6FNfTBHXLbbfMzQmoqZ7dmTomke5eKTXmbZUqclhxRXLzgO2VrS+hBo5t2hrYesH4LbC4lHfqV9fhVGp1h9L/95C1u1rq7TVupq6LQeNYI2OHEHeFNhNSWUc7Xt6lCWmaOJZGgZPJ3+U/2uUC48Z1XCfxl7svY2BaCzITEXedT5J3uKyjujXW+3L2EsFaHDjK5N7EyGlN3qGZyykiDP9DdhPWdfZ1qFcVMvSjouE2ijDnS3exJ4wxZDh6JsULGzV0jc2Rk6mjwnfLetdOk5+xMu72NusLqxY1+JL5cJC+e4ztBOYZE8saOoBS40oryKGpfV5vLka0eIr5RSB8Fzqep79Np7DmvXSi/I8he1oPpJjFwfjeO7yNobixlPWn7hb9yXq4HoUWpR09VsXdnxBVnpn0f+yRxfhyK+URMYDa2Jp5qTj/E9B9ixpVND/sbL6zVxDp4lt/whMBYUNORcrrCWzA/YRPH3Mv1Hp4edba1bP0xIXDbDT/9aq6+SLBijEtJh2lDpftamQfZQNORd0ngOlaadNzfQsbq6hbxy9xXXTF99uUji6sfTxE6oqc6AHbtPnUuNGKKCrxCvUe+PY4IL1eKd/OQ3OsDumZx9hWbpx7GmN3Wi8qTL5g/Hb6upjt960GyvIbFUN1Bx4OG4nio1ShhZiXFnxLmNQqb9yy4qscd8tUkWiPpMYLoH8HcOo7FqpVNEsku9tlcUmvNbCXcC1xa4EOByIO5WRx7TTwxkcnf5T/a5QLjxnU8J/GXuy9jYFoLMhMRd51Pkne4rKO6Ndb7cvYS27sVocOPy20zaS3U1MwZNiia0dgVVJ5bZ3FKChBRXkI+/VUlxvdbVSnMvmcGjg0HIDzAKxpxxFI5K8qudaTZZLXgCe4W+nrGV8TGzxh4a6MkjPtWuVxpbWCbS4TKrTU9e/8AY6XcmtSGk/5KHUM/wj81j8Suxs+TSS8f6KGQWlr2EtcDmCNRBUlrJTxm0xyYFxAb9ajz/fdOQyb+XB3bl5wVX1aeiR1djc8+nl7omLvcIbXbaiuqM+bhbpEDaTuA6zkFrjHU8EmrUVODm/IRtzr6m8XCauq3ZySnZuaNwHQFZQgorByNxXlWm5SLhgjCss7qC9Coi5psjiYi056iW7Vor1UsxLHh9i5aa+enYnMZ4UkvNS2riqIoWwwkFpYSTlmdy10q2hYJl/YOvLUnjCFS5uYzGYO1TWjm4ywx64arX3CwUNXKc5JIQXni7YT5wqyaxJo7O2m6lKMn5oU2MKdtLia4RMGTed0gP+gHfFWFJ5gjlL+ChcySLhyd/lP9rlEuPGX3Cfxl7svY2BaCzITEXedT5J3uKyjujXW+3L2EttGXQrQ4ce9lrGV9ppKqM5iWFru3LX7c1VSWG0dvRnrpxl3QnsT26S2Xyrgc0hpkL4zxa7WPl2KxpS1QTOSvqUqVeUX7nNFf7vTxNhguNTHEwZMY12po4I6cX1aMoXdaMUlJ4Rt3SXs6jdKrI/zXnKh2Mvja/rZy01PLVzxU9OwvlkcGsaN5WxtJZZEhCVSSjHdjpwxZYrDa2UrMnSO+vM/wnnb2blW1JucsnYWluremoLfzO+ZlPcKN8TtCanmaWuyOYcNhWKynk3SUakcPqmJjEdlmsVzfTSAuiP1oZD+tvzG9WNKanHJyF5bSt6ri9vI2w7fqi2XGkE9bUMt8b85ImEluWvd1rypTTTxubbO5lSnFOX0knjDFpuFbE6x19Syn5rRkaM2AnM7upa6NHC+pEu/vtUlypPGCrxsdJI1kTS57iA1o2k8FJfRFPGLlLCHnY6I26zUlGTm6GINcf5b/AGqrnLVJs7S3p8ulGHZCdxRVtrsQ19RGc2OlLWniG/V+CsaSxBI5O+mp3E5IuvJ3+U/2uUO48Zf8J/GXuy9jYFoLMhMRd51Pkne4rKO6Ndb7cvYSwVocOXvk1xEyA/4Wtk0Q55dSuOzXtZ8R1lQ7in/UjoOFXa08qT9i4Ykw9SX+mDJs45mfhzNGtvQeI6Fpp1HB9Cxu7SFzHEt+4u67Al8ppSIadlUzc+OQD2EhS43EHuUNThVxB4iso8qbBF/neGuohC3e+SRoA8xz9i9demjGPDLqTw44/gv+FsKU1haZnuE9Y4ZGUjINHBo+Ki1Krn7F5Z2ELbru+5wY+xS210zrfQSA18zciR/qad/Wd3nXtGlqeXsYcQvFRjojuyu8nuKBbJf8XcJNGkldnDI4/huO49B9hW2tSb+pELht6ovlzfQYV7s9Je6I09Y3Pex7fvMPEKNCbg8ot7i3hcQ0zFvc8A3mmkcKSJlXHucxwae0E/NTI3EHuUFThVxB/R1RyU2CcQSO0foBZ/KSRoA9ua951NeZrXDbqT8OP4LzhXBkNnlbV1r21FWB9XIfUj6uJ6VGq13Poti3suGxoPXPrL/R645xGyyW10FO/wD+6oaWwtG1g3vPVu6VjSp6pG6+ulQptLdiibqaB0KxRyUnl5GTyd/lP9rlAuPGdRwn8Ze7L2NgWgsyExF3nU+Sd7iso7o11vty9hLK0OGNXg6iNRGwheNZNkJYLlhzlDqqCNlPd4nVULRkJmfiAdOep3sUWpQz1iXVtxSUVip1/wBlypccYeqWB3+QbET+mVjmkexaHSmvIs439vJeI3nxph6FhcbnE7LcwOcfYE5U+xk723SzqKpf+Uh0rHQWKFzMxl9JmGsf8t+fmW6Fv5yK644r0xS/kohMk0jpZnukkec3OccyT0lSkkijqVHN5Zh7c9yyZhF4LRhrHVdZo2Utcx1ZSN1Nzd9pGOg7x0HzqNUoKTyi3teJSprTPqi80mOsP1LNI1vMHe2dhaR8FHdGa8i3hf28v6sHvLjLD0TdJ10hOrPJocT7AvOVPsZO9t0s6it3vlLhDHRWWmdI86uenGTR1N2ntyW2Nu/6iDX4rFLFNfyL+eoqK6pdVVkr5pn63PedZUuMUlhFFWrSm8yeTVZEcZPJ3+U/2uUC48Z1XCfxl7svY2BaCzITEYzo6kDxbvcV7HdGur9uXsxLq1OHMIeGHMBQyUjzMfQvMGWoBF0JgajdrAF6YuRshiCAw5oKGSeDQxrzBlqMc10JgajYMAXp45G6GBlAMjk8GVpHlXKBcfcOr4T+Mvdl7GwLQWRF3ePTjeCNRaUDWVgSk8ToJpIX/eY4tKtIvKycTUp6JuD8jzWRoMIDKAEBhACAEAIDKAEAIAQAjM0hpYHpnQ2enDhkXZvOfSc1XVnqm2ddYU+XbRTLiNi1Ew5q2PTZmgFVjK1Op6g1cTSWE5SZbjuKl29T+llFxS1eedH/ACVjSUnJTOOQ0gvcmGgNIJk80MNIJkaGGkEyNDDSCZGhhpBMjQw0gmRoYaQTI0MNIJkaGGkEye6A0kyZKCRI2Ogfcq1rMvsmnOQ/BaatTQv7k2ytefU67Lf/AIOCz0/NwsGWwKAdUSqAw4AjIoCDvNubM12bA5rtRBG1DxpNYYtL5heeB7paAF7NvNbx1cVLhXW0ikuuGST1UtuxWpRJC8slY9jhtDxkVvTT2KqVOUXiSwac4OK9McBzg4oMBzg4oMBzg4oMBzg4oMBzg4oMBzg4oMBzg4oMGQ/MgDMk7gh7pyTNqw/W1z2mRjoIfCeMnHqC1TrRjsTrfh1Sq8y6IY+H7LHSxsiiZk0ayd5PEqHKTk8sv6VKFKGiGxbImCNuQWJtN0AIDDmhwIcMwgI2rtjZMy0BARFTY2y5iSFrxwc0Fep4PHGMt0cJwrRk5/QYfVBZcyXc0/DUX10Ix3KUX7CD1QTmT7j4ah6EHcpRfsIPVBOZPuPhqHoQdylF+wg9UE5k+4+GoehB3KUX7CD1QTmT7j4ah6EHcpRfsIPVBOZPuPhqHoQdylF+wg9UE5k+4+GoehB3KUX7GH1QTmS7j4aj6EdNNh6KA/ZUzGdLWALFyb3NkacI+FYJaltIac3BeGZLRRNibotCA9EAIAQAgBAaPAy2BAeBQGEAIAQAgBACAEB7RgcAgPVACAEAID//2Q==;" vertex="1" parent="1">
          <mxGeometry x="340" y="282.5" width="55" height="55" as="geometry" />
        </mxCell>
        <mxCell id="ZsFiNb4aICeP-5Nhd5WZ-4" value="Arduino" style="text;html=1;align=center;verticalAlign=middle;resizable=0;points=[];autosize=1;strokeColor=none;fillColor=none;" vertex="1" parent="1">
          <mxGeometry x="335" y="350" width="60" height="20" as="geometry" />
        </mxCell>
        <mxCell id="ZsFiNb4aICeP-5Nhd5WZ-5" value="" style="rounded=0;whiteSpace=wrap;html=1;fillColor=#CC0000;" vertex="1" parent="1">
          <mxGeometry x="307.5" y="530" width="120" height="60" as="geometry" />
        </mxCell>
        <mxCell id="ZsFiNb4aICeP-5Nhd5WZ-6" value="Raspberry pi" style="text;html=1;align=center;verticalAlign=middle;resizable=0;points=[];autosize=1;strokeColor=none;fillColor=none;" vertex="1" parent="1">
          <mxGeometry x="325" y="600" width="80" height="20" as="geometry" />
        </mxCell>
        <mxCell id="ZsFiNb4aICeP-5Nhd5WZ-7" value="" style="shape=image;verticalLabelPosition=bottom;labelBackgroundColor=default;verticalAlign=top;aspect=fixed;imageAspect=0;image=data:image/png,iVBORw0KGgoAAAANSUhEUgAAAIEAAACBCAMAAADQfiliAAAA81BMVEXLGUj////y8vIiISOBx1YAAADOGUn4+PgeISIAISDRGUr19fUbISIRISH8/PyDylchHiIWISGGz1keGCGzG0J2tFAdHB6+GkUfGyIdFSHFGkddHy6VHDtAIChWfz4IISAzICalGz8RDxIZCR8UAB19v1QxPip0HjOLHTnf39+2trZCXjMqMScsISVOHytdikLMzMyenp5JaTdlmEY2Ry0yMTJroUl+HTZoHjDJADqMjIx1dXUmKSVra2xKSUqAgIBXV1c9VDFPczo9PD4AEA9YABZQQEOLAClyACLh1Nbbpa/TZnvKPFr06OrhucDThpUsABDtmziAAAARPklEQVR4nK1biXarOBIlJqw2BrzjJbYxeInXxI7jdvakZ3qd6fn/r5kqsQmQcPrN6JyX8wxCuqoqVd0qgXD1Q61arSplaCVs+B8FrvzYUMIPTB5OnG/l8g/AuIigtCjBqKXdQiHTc2enUGBHZbErQXd4+n9EUH2RJOn1fIa/X7eL252ilAoxwE1F2UHPL3jifH6Fvy8XxFKAoHr3ZbmuKIqt4C+MJrVuS4tFlauF6mJRug06whOuG/y1vu4KULAR7N5ent7epRaOYHUs8lcUCZgHUXxaKCwMZWXxJIoPZFpRDJ/Cv62W9P729PK2+z6CO8l13XAka/qhOo41PUwsAgOuSuLtoqRk5ldKi1u4g/dhWmtyOFiOo35MrRA5NOnuWwh2d+c3SQzbs+dNnOP1cel91LaOc5h6AMlChTzcVlMAqrcPKHq4KXrTg+Nsax/eEp50Jp73HA0nvZ3vcoLIInjD5WNvfNS7rzW3y7pp1q5vrk1/eqjdeJ3pc51YxRMtBeWJaL7+PO14N7XD1DfhiZppdpbbZm3p4UJEYhOu9FaMYBcu3/n0m83j9v6mVjN9//raNOGfD4Nuva0/dURYKg0BAIBwRGfqw32A65vBI75v1mo399tjs+l/OqEgdoUI3nD9dWje0YSl12CUpOGYte2x5h+cFQwn3UUQlDsAANcOfu0IAEhH6jEYxjSPHg6LcngrRPDkivUbWD60a3aD0U1/tb8Hi5BCW6jeAgDvfr+CpacnpxoZ07+pi+5TIQIca9IEyLyBAhTNfe1+Asaww11Z3oEJTO5r+2bxQ9CaE8RdiGABCDrTooGi8a4/HNF9RSFUX13R+bgunD5sU9jOUqkQAdqB5d18YzTTdyxYj1JSQG6W43/nkRvPumQH5deW+DxdLem1csfbe+B+IC6D5/T2Bf2S/y5XU1VsvZYLECjvgKBJ7QC/6dd4g9cOdVQq7IP6ocabvgYjUL+aYDzvSpEWyHD0lP725sgxS/NYh+FKANo5cnqYx5utT19A0BnfnEFQApFOlvSyzeb9Yc9WhgmG1dq5YLrs29f7wz29P8za0oEwVWyJxBS9Zcquas3DBF1sbgpwkGLrC6xgm1cCiP9mcmjSN0x/6eUNMYug+gB7ezVd+unRjivvs5mbxmx6JBZ6eUdQa356q2Matb+crqD/Q/UiAivvDiHOOJ373I7zV4QErPxsd/++49wwVNe0LiIgbvnAknjzw7Nygx6Qt3QOObiW95EXGcjykHfKOQToFCdLhvWbtb3jdbbpOwwEprnteM6esQjTXKJTXhQiqJaqGOa8KcvFoyXBHWptPmFA1pTSQq059TKWHD3eRH4j3VVL1QIEZRJo68s9c4PD8qxJ5zNWhdkMQr4T4zWvPzsTa8t0IOZxv6yTkF7gEyHeEy+/YigxXOFqMokFVPucEASTz1q8zMmk6OEgkpQUHoIg2j+4wDO3HF9smvce8DCySLMpBjTUEgkmEyJPx7vnedDaFriu+xUwCg6CgHMvHpDqfnAZytaDu8hFrqf1kIHWp9fIWz4mlrflMpQPJNsPi4DnsxGEnEshXHH6wfH117AnLAdEDVwt4sAi8rPmCq7vORowjx9TwhGjSVgIYvZdRgTHGi/cXdeOjtV5vnlOAAAE+N2x6kf+Q7UjIogznSoDQUJ83zE2fPoFEDqW5Vgi3eC31SkA4H9iTHiPEZTzCBLqXd5hxgCr4vI+MCox3yaMABU0s0kk5rq7JNtTcgjo9GP3hWRtstryEHw6DATOJw/BdjVBeva1o5OcLIJUGqiUIAOxnrl6CCJStuUjVKID9ARP6VxTSSNIJ4GgJchbO2BYzM0deaKcGphCAJK+rwOVca8yCXc1hSCXCWPiAAnwvplfV+1YZwIAv8AwRb+5x7Q7cIaZZdIIcvUA5Q6z9463yrFgs6l2OAg6as54zf3Kw5zfvcsCiCxBYIoAZbT7wuxluW/CXk6WBkG6zgMA3et0WMbnmvslZilfu2p+CoVCwCyJEM5Yh8zbWoWsDXLQ48Hjzo/NOxyjfNdfrix4uk64IXuGGAEDX4lEiKCO0pn6NRzWP95MHdoGVNU2DMNWVdoWnOnN0UewNX9KpNVyo2iQk3OMgFOZUhYvD6SSNF1C+5g+OxNKARVDHQ16s9msNxipRoVSxcR5nn7gI4TAtB5eFgwtx0IQMt4o3aNa2iEGq+449U7KB9japt8Q9KAJjf5Gs+nbVgcfsXD+XYlbeytFCDgIUQq3pJymGpqmDQ1jqA1D8Wunti7LQtRkWW+ftFAZw6Crphl4odViGWE0foiAC7F8xuqQbQ9m/XG7C63dN4gARmM9mT4EoY9HRAxGP+g67p8Gto0VpzN/ghABFyFWhyqVHko7WLCsi7Aue9DWhXzT2wOYUBUDcCAW0E6vUklXnDItQMAT0hUCGA4a1HLlBqhBXbezAgjvtteAb9ig+uuNwRAh8FZZJQh4O+EMALQTLW65iyLQGiwJECk0NBRCl35EP8E16czfDVwEhKwZp/RkPRBzZcMDABA2IHS7l752Mih6xkLAUwIkxUZPzo0lGvMCBHPSI41b7hmQYnPVIHD24tWbJFZG6eEfyV60x2wrIJONyXYYPtIQZGFUAT2wV6oAAqYSypg/ag16Ln2uke1+WQbwZKqPjOYhsT1zmYdAgahkz/TU4JE3EgWeEGRBjLxSCoI+syE6MYWNCJjCKeFGpG06Wh1RMweCLPSSTjQEuYtbkj3RlcBUD1KklD3pj1ri9IebLtMjdTfDpJNG2wLacJ4kkVZlIyi/uGIlsQJZPlEAwBjVvpzFoMt9NRWctFMSOORGRXRfmPrmIICtqA4SIbY3hphqqjHot/XYWYEDbvcHhpruZGwo3zlQORuyKrBEUwZvZMdK0BujDABoFW3dmzdAOtCExry31iq5PsYo9p76yQavxBKCIjCvghkM++HTej8ZPOBElWCxFYjA4mAwECFyBz3USsCZEpjJIEOOIZSZCLCUowWOR+/2tHg8cXN6nD/OeiMKU4Wab9Sbwf3TRozva73AaOWxRgo430YAQYm4I1nvr+3I+jbjNtgbUCK5O+7ZWaFX7N64iyEZbLQ93kRWaY/6aC7olNhusSwwLsYI9G5MfLReQ0/MXwc6krYNA0hL6v4mFB3QKRADH0GJiQB5+hBGnFeMaIFZUqQLqQ2qnYT09gTKFInJqMwB0RA5+3cRAE1HejqLlzncMEhRECnDSU6M+8keNkYzQlqZoYGFoPpCThzj/W30uiw3LA8iW6gMmPe7sZNWyX/cF5YaGAiqu/jMNRh/w44DciOCqDbYHYRN2l4lFm3OI6juMFNK8iBV5cVCfRas0Zhx4rUs0MNg9sSAkEOg3EkWEtRB5OT5jERuBH1stgiEmLFgnwFSVkvKp9BZf4AbUayIc0GIFsgwsrgRKYOWuC0yV2MmCHMRmXt2S2Y9Ejm/tdGfy+0QPYeak/EfCS185GOkR4H4YtNnxRGC1G9yfmuElkcWaPN0TBD0kRDEEYTZZWbHYgLLNJKz4mjNKQTlRQv3Xpj0nBCBxtWxEBLA73SpnMKUC/dnKxUjlRQ/UMAR2Jtw88uIXmXu9L+BAJkBSjIcs7sBxvhCrzrFUEj5Kt7bRMnRoz+OgCwkNhXiQ1JhOoXg6rUlxhE9QGAU6fg7dgB9DNpYgW2IrdcrGkHyA5mROopHIwiGBenJd/YCuoRhqos+UlNsic4XlDuXJtlEfBd03CP+oFfUhWiKUibSfqq0l8pYkCDbye6XTxcRtMMzlnYhApCBfUqGbds0bS7TmWsZCPI6ESjZjYVaiPI4rSCPC7RQSRAI+hpoM3XOQOfOLQiz1Fgo4qIkMdhoGHQGBX1IskUrSoeg3irRCCI1lCFTq/QoGZBaQEFU0PsxAynYDcjTwSdSMoCVSaVo0qsUAjeFgKxQXfNXJ4sxPxALdIWVHVpKiMBNI4jVILZoLXRHOIE25pZsekmSZve4vcZoK+qom1wZVFpiooRULQ0sMXEHcsMQi0JvZIbiBWMMaJKR7ClwCEkCl64n4mswYgZ8thKQ3O6n2brNNoXAa6ZFKeLLMLES6JoqqVrE/iCiYJBDM8bOAuBYo96IGHsc5Ik/eKOOHam6MvGJ/TgfDrca8NwcBFmeBQJSK9iCjtpMztqj3oj4dhJjZcAes5RMbT2dMbfX0erUSj81tiyPByiBylAdbHq93magkszVGIwz/foJUV1HfpPOosu58wVIE1Q5gprUQ1Sj15DjWq0w7mEt36hs+o2ugNe7jf4Gs6uK0RsLcf1XbvSoisIwEq4M11wl3gnRGUsokyc3Nhl6r5Fa/pxUl9vj2QAT44o2y1QwZsHlwWzcJhXlebreH+1XNHA3KvLmzplIeA53XzdVkcH1aUEj1QFM49JKlyFJQ6mpdtjPyCTXdugRNklwps+ZIjXAfgz4BlU6YzQjb3TEPAufIbsad2frtUQpIX3eiDQtqJzLa5U/2JBDScKiK7upazmsvkckTWGeub63ILvR5bTDywLgEnh9VgAB3KasQybWek+JIHPuXD27mC80Ah1UjKwyydVBQSAcsB4IhzHmDcwX3DBris7/02fvhC1DcoVmaK97s9lmPcyqg58lJpkkJfzhejOb9UgtyMa0LVbCVRYBuUwK2uFEYO7Q2vNMuYYfBokQemkIxmgeDLOJr4cl7vz7B6FjjBBUBmHOrguPGi2GouI+nSwTAWiPYXFHFmL9uCkd5N5DKb8Hb6uLWkJZUxVNddDlTo+tO0jgUhVN2AWhbYcZE+s9FCIEjE5kpTQ7k9u92MaLlZBSw7BHp92ErSECEpWo17Iy7yOVwwqOkZK1LMQQitOTKIkJAKRqL/I4uBE4xCs2AvLyMTlkFY3MPHoEgUNYko7RQcgwKyydIGi1qiX+O1m4H6rkzfX8ntfDuth3ERg5bQW+wn2rFryXhqZQ3rlZMwiE2A320ze1ENcAqDvEEPCFoKL3lREf7gZGmhAcqBYmEMk8rGNZUk1pvSulwvcTAUJQSWJYfFAs+N5uZKWbZJcgP7vwnmqVHHUyfX+Yq1/wSNx8HtN2pOnZz3py37EoRAgGt4z7Da/MKfIaRARKdsL8tzxKyW2xV6qTBV6OTAYrz0LptNxSDgDrayI8YbGZJh+u8EJ0ZktJf7TxlCU/Het7JghPqsgYJDRGbhk5zHI4VQ8YM/vxBBcBnnqzPQ/J6C+wNDpTp+6Bp8p9SMRHcHWW1DXrTEEO/A1IgcFUwzzPeGQ92F2r0pk5F+fLulsp59fJQI3w/D31bkgwf2MQnruzlABxJfsFzQUEVzvxZ5YeumGUrxinKI0SggTpFHFKjeGy9PnPIvu7uoKvCxfvEmtTxRzaUIOsTQ6yNjUmMRoDwFh6z76ufhnBVfUs5ZPmNsXiK5oxIpnryKCPfLVcSNAb0pn/gWPRN54745dsjM+kUnT2Hgsnqz39F4OngUsIrkpv/0i9aaC3i1KpCNU6dTSod//xVvit64XvXHf//KUbGZwsNwbZdIDV7EEjSitlvfvLP4sEcBkBuOj//NoIXsAL6gbRSm18+W04HNrwD1+bS07cwzoCtsav/yn6xPVbCIA3nSVptNmMNOrA3dBGp/m43ZXJPHK3PZ6fRppBHcNr+IgkncsXx//OF9elsypRSxSHo1n07kOkH/IexGxEJa6qLannix87fxMBOIe7B8mNAcy6DKdMlJ7kzq70cMd1AT+AAFjD7XvwETMSIO4BZ8hTW5L0fptnAv8bAmilOwDhFr0YR16Nc2H6u++I/+8jQBJ5+/L1608FMvjp16+X2xwV/P8hwFb67fc//hTkn6BRlkh+Cn/+8ftvf2P1P4iAtH/99u/f//rrjz/b3a7Q7bb//OOvv37/92//+qGx/gutdNZ8qwJMUAAAAABJRU5ErkJggg==;" vertex="1" parent="1">
          <mxGeometry x="347.5" y="540" width="40" height="40" as="geometry" />
        </mxCell>
        <mxCell id="ZsFiNb4aICeP-5Nhd5WZ-8" value="" style="shape=image;verticalLabelPosition=bottom;labelBackgroundColor=default;verticalAlign=top;aspect=fixed;imageAspect=0;image=data:image/png,iVBORw0KGgoAAAANSUhEUgAAAIEAAACBCAMAAADQfiliAAAAaVBMVEX///8AAAANDQ3Pz8/z8/P8/PxVVVXq6uotLS2Hh4dhYWH39/cJCQnl5eUhISHd3d3BwcGlpaUVFRWurq6BgYF5eXlpaWmRkZFaWloaGhpzc3PW1tbHx8e4uLgmJiZLS0s0NDSZmZk/Pz8DLz/cAAAIdklEQVR4nO1ah5KcOBClAZFzzun/P/K6JYJg1j4vM+uruuJV2TuEQY9Wh6fWKMqDBw8ePHjw4MGDBw8e/C/h6qZPMHX3Pxjd7O1itEDAMpoy+qssujJYxwZPVbePS6n9neFDOxAj49CLPXmQGdshDLP/4+O3Bb1ubQyeB2OkKxUAY3RS9ZaarjQ/y8Hk41uxGeMbzwzP4Pvr+KdPAPI25jOS6T82vlvSAE2rKDH+bfm5lYFiTkgBPcShW+YfItCR63MjR2jtUDkxUBhSKPFvi2dgDH9gfDbjkyfu7T664ub2OwPFtNazPXJR048TcBskUDL+GS29D3AwUDSAgCcFPQc+JR+Fju81iJlXUoBivyAxIO/IxKeeZuKjKcpUjycyfNXD22UGrNr8U/FH/MIHY4KmuGHrAfpDfFySGSghgLN9xfmkFfRlNy86BGZCdlw7MVCaw0XpyvghAkwmQCaIpItnBr48qiP7y1vID9tye5yMe2ZARtizsm58KDehXy+ufHQK9QsDTaQlAbOWJuU+MAwCqdjgiEy+fGGAx8FBFz3Tet8bDUAKpbY+KEwkl/iKASaLTnzSOxuLNjTvEujBEzLIiVuTSQP8goGOcaswX4uNQSiYLUPcBcNM0JbTyqLKFxhMJk8DMpDszFzdAasxhIRSlxRrWMVenvodxMKd27hapZjqwVQ15Rz3kdb6vo65zzf9Vov6eLYbw+J3cBQpFcjsarTvAsvh9op+nFWB58EFh07cpWPg2OnmvPqbeSm9xJ4NwWwX1TgFXzAIprEq7D44D1m+ZQR3hOnkZw4Y/Lzph63WRX2fYr6M0z7qtDb0TW6uHAb5OyZ6wn0GrZxfFF4TrsF19kRCeklDjpQmvw3Mx6Z87F8m5UsG2uWm7lRLvwesAYcBddPUKRuYJ4hYOCEMUC3jle2L7nTfF7WdvRsXi2VZtedZF6AjvpzyVPx/KeKVRH5JWt8AFmKheeNrwP0hBH+chv4mA7QwNwBmo9rute+hz7AyOpQPsURm/zLSr1ALheHcXAaZmQgdlI83M7PvcTOmuzcwURH4/4zjl0fiC7MIixwC8+Xpf4KI6zFd3W3YqzWmB7tefMWfhnkY0MfTxMPiN9X2GCymogUJDpknm6wtQHW5G93LCCl4Yom4BTwKjpGxgdIsSiXdIx93KGlh3tMaFRMR3mxQEG/izAzICN1dqTTD4JMXHDIZXVPH0cDGkjfhC0JHKtZBPpYegzcTHyCiuyYoyJXCu8FgU1HAUdcMx3hkazg3OLqFb452mEOqSLoNBQshMRQKwbAXIcSRQsDr472smMPC86Ioba7OPaO0cZAkJLu2KjjEB7qKzJ54U8uTQC5l0o7YsLuaOQePwBkwRgyo2BuQQdLAhFJpAa8AZNQEEDLy+AKqEQpLqgsdSkV6RvnrYX7LQOVCLyL15eo4I66hJir4g5p4juLiDQnaYkkSVXUZSyFJIEZ6qnpIw4g/Q73JICP+Kp9DF0fQmY5yI1AnZVFrmDHoI6jBMm2oPRSnbqjiaXSCup6OahmTakPddm8WbK7QGvJmZOCiGdCoNQ+EBEI84+PRiA5ZQ4wElQk/4LkA+ShbDhzxdpIV9zxx5kuVjsoTjU8MyNl7ckhL1/FctSYDdANkkFEdoFVuz1xTUNC4RAvPS80/hxA7GI6GSxTwH9olz31M+HmMboCrh7zBO7I8x/FcRWuaXmFxk/s0ZfwRE4UTMb63aOgEdXyP4qbkd0QynO9mZX91IHxAcMeK/bDOf46TdosBVmeRWkig4BrgN8g67nust/NsPVMksCZj1xA64QaqLb2Gzr+pIUcxC1rd+r1xrCQcMftoS/seAXr3zYPaOHcczHaec0YReFDRBxMDb7FJ1Pm4higcJ0+3rmZ3NxT4cuGcSeYXac472+ITdfBgmInzWY8Ul5bDN4CBeNbZX4TVsXp3a7GCW+JzS1e3pCbQd2Ffwsh/TW5S/yBDBiqtnBMjlawQvS5z/hwhnH3ITX63atP4PocgAcWuScbLwutbYM5FYxYo0/C0GWpRn6bzXJYWOno5x2na69Tw2UAkmp64seatnl509kXXhiSvpqGWegb76j3GNK5KQBJ1rpGqeKu7G8AgjOCaXeYsidTBUOtgsKbEo1VbgJwWZnqeql5ILFn4XhcnFev3Lhu3cT0Y8zLtO+rhmDpDPzB13k7oSSapV1BwlG9tPWGxjZp19DGPDRjO10+9tPaVgSBhvbEH14luXl2VHVXc/iq8z9284UsKHgTzG43NBh9a9dsr4BLk7NlnBvFXDADy++GI0AMU58ehc0nMl9761RdpfOPNniYpFNWUj0614tJTra5GWDfH3sMs72lc22sXBtGFAWrY9wnw4ubspo/Paf7CAIXqmcFnttzYKElFrA3SdsOFQYjF7GKEN5qJMoVF2jlLT03GE4OuwvJ5dQTjI/NAFPZ9jgG8I7/IDNwFq6DzQqH6yJYbLU7UNRdFIHq7LwxKSlfpS0qg9cYnQKv2RjyqkYSKxACZTWjxVSUA7KmBL1s+AN4q4GFAW8Bbbj4YUDND7CjwUbNUpvBWUtzh0y7HGDEuYTf5uzPwVc7PFVLJ80KM24PC+BkKLKU6Z6D0ibbVyM6gDShE3NgwcbGoig2uH7CCopM3gGe3PSqTTPoVCOZNKLuMS6WYRAQvJb1EYfgQBUUv6fcuEASeCmrs8/WCjitET2hDsFLFr72t/xbBHhkQfOx3GXpq0JKQDxkYgwcG/eZCJf1WOxEZRNr6PSjA9Mkf6YTpmKy66fhFVOL061tqUie724Iz+dQsbHC1tCyWVTsuTZlKIsCVS4XGrfDOTs8dnCRJS7205Cd+nPPHaGveoP4vEb679/w+PlKfHzx48ODBgwcPHjx48JfxD5Lvbco7yc6oAAAAAElFTkSuQmCC;" vertex="1" parent="1">
          <mxGeometry x="530" y="517.75" width="84.5" height="84.5" as="geometry" />
        </mxCell>
        <mxCell id="ZsFiNb4aICeP-5Nhd5WZ-9" value="réseau" style="text;html=1;align=center;verticalAlign=middle;resizable=0;points=[];autosize=1;strokeColor=none;fillColor=none;" vertex="1" parent="1">
          <mxGeometry x="545" y="600" width="50" height="20" as="geometry" />
        </mxCell>
        <mxCell id="ZsFiNb4aICeP-5Nhd5WZ-10" value="" style="endArrow=none;html=1;rounded=0;entryX=0.25;entryY=1;entryDx=0;entryDy=0;exitX=0.25;exitY=0;exitDx=0;exitDy=0;" edge="1" parent="1" source="ZsFiNb4aICeP-5Nhd5WZ-5" target="ZsFiNb4aICeP-5Nhd5WZ-2">
          <mxGeometry width="50" height="50" relative="1" as="geometry">
            <mxPoint x="360" y="420" as="sourcePoint" />
            <mxPoint x="410" y="370" as="targetPoint" />
          </mxGeometry>
        </mxCell>
        <mxCell id="ZsFiNb4aICeP-5Nhd5WZ-11" value="USB/RS232" style="text;html=1;align=center;verticalAlign=middle;resizable=0;points=[];autosize=1;strokeColor=none;fillColor=none;" vertex="1" parent="1">
          <mxGeometry x="240" y="430" width="80" height="20" as="geometry" />
        </mxCell>
        <mxCell id="ZsFiNb4aICeP-5Nhd5WZ-14" value="" style="endArrow=none;html=1;rounded=0;exitX=1;exitY=0.5;exitDx=0;exitDy=0;entryX=0;entryY=0.5;entryDx=0;entryDy=0;" edge="1" parent="1" source="ZsFiNb4aICeP-5Nhd5WZ-5" target="ZsFiNb4aICeP-5Nhd5WZ-8">
          <mxGeometry width="50" height="50" relative="1" as="geometry">
            <mxPoint x="360" y="420" as="sourcePoint" />
            <mxPoint x="410" y="370" as="targetPoint" />
          </mxGeometry>
        </mxCell>
        <mxCell id="ZsFiNb4aICeP-5Nhd5WZ-15" value="RJ45" style="text;html=1;align=center;verticalAlign=middle;resizable=0;points=[];autosize=1;strokeColor=none;fillColor=none;" vertex="1" parent="1">
          <mxGeometry x="460" y="540" width="40" height="20" as="geometry" />
        </mxCell>
        <mxCell id="ZsFiNb4aICeP-5Nhd5WZ-16" value="" style="shape=image;verticalLabelPosition=bottom;labelBackgroundColor=default;verticalAlign=top;aspect=fixed;imageAspect=0;image=data:image/png,iVBORw0KGgoAAAANSUhEUgAAAIIAAACCCAMAAAC93eDPAAAAolBMVEX////uODQAAAD09PTw8PAYFxQaGRczMjE/Pz76v733oZ/tJCDtKiMiIR/Kysp2dXVHRkRUVFQQDgv6w8IKCADf39+9vb1LSkoeHRrq6uqqqqqjoqJnZmZ9fHzX19ebmpuKioopKSftMCu0tLT93t7+6OftFAbuHRRdXFz6trXyWlfwYlz6ycnwT0r2qKL2jYv1f3zzcm/+8vH60c7vQT71lpOzkKyTAAADsUlEQVR4nO2aAW+iMBSAu1dbPAHRDl0REcQpTt2m8/z/f+3asg0Ez+yStS6XfskSxWR+Ph7vtTwQslgsFovFYrH8x3TGgc8Yc7LxrQziLoRcQEMYLG4hgKfACUDIQgBKITBv0HFCDsNFhDEeTQbgw8C4wpBRv0qBCePG4zABDqPa+zHzwXBSMgrnGZgCeTBqsACybhzqUuibVAhYK+wxQGbQAK8JHTWOzYBNDSp0HNLtNI5hs8lwWYF2rYJVsApW4ecq4M4n+CYK0QMjHzCmq3teVUjAr6BzTXG4qpCK1ewnoa7WdVUBJ93BJ8NmTzeiYAarYBWswj8o4ArtCo/3Jcu6wohCDV03Hj4UeitPUvxCf+sRXHeP6Ll3Eu9MIQZSAUM9BtcVUDqsmEY3UTCCVbAKVuHrCp1+ha6l43WF2Txkn0B8CwWz+4gf2yMmQUXSXFaYUTCCVbAKVuHrCqNaj5jdRGHG6/uIVJMCvqxQzgmDs30E1dQj4pBeUPCZGhaNgdU6paZJTQY+rHFTwWccJvLjRa1HZHqCMBEGgfrXdQXUWQM3NKucCYNEvXra5Eoh3+7U+ynw1tRMBx2Hlga7vIyBdCiej/LQmjETtSED8qDyoLirkXsvUs+nZTpoJfI5yHrzemYgWEmHBWjbzVdkwOSIvtc0EA4yKddEfxiICsJy1TIQvCHUbw+zv5tZOZPdexcM3JOoDl3KNF8Usar6S/cuv+DgiTRI2gP1byZhYR+hF9d7/t2W8O5lQuoe4D+QuYjzwduit+e2Qk90aiB6B/jYoU6E0NbbI7RpKeTiaARcb3XCc9UiN7l72LYzMt9KBc2Lp/cobHLvtGnngpEovOfCNi8ej+3i5J1ULmguDIka+53cYnehNnhPJq6INJQF+FjImLdqQ7FUdUHz827v1XGbe0e0bDh4B1UdQfeSIeSyAO9W+fMjOv4+VziqHjHU3SpFp5QLloOX5y/opZ4OhUhGNDXQKUfcV5HeeHfuyq0ZuOI0iNUz59rXC3LVJG/evG3ds7OgDETl0nZ/q0bkcHXZvb261Wlw8578bMqIo99AZpxfXvrHw6oQKZF7q9WrHA2hBDjRtok8I5b7iPLl7rTf73vlEh6vxXFTz8BmYs8ybP7cvvOxmzJCCpSwpD7zmQVACDNnIH4yBc5gmPbl47fROO2CCIFjJg8+wBkXuRcCABN/IaVADVyNDaKsK76fykexGYSDVNco7iq4Hwdz+UB6EM/0l0SLxWKxWCwWyw/hD+BbTum7EFkLAAAAAElFTkSuQmCC;" vertex="1" parent="1">
          <mxGeometry x="160" y="80" width="60" height="60" as="geometry" />
        </mxCell>
        <mxCell id="ZsFiNb4aICeP-5Nhd5WZ-17" value="&amp;nbsp;capteur: thermomètre(s)" style="text;html=1;align=center;verticalAlign=middle;resizable=0;points=[];autosize=1;strokeColor=none;fillColor=none;" vertex="1" parent="1">
          <mxGeometry x="100" y="150" width="150" height="20" as="geometry" />
        </mxCell>
        <mxCell id="ZsFiNb4aICeP-5Nhd5WZ-20" value="" style="endArrow=none;html=1;rounded=0;exitX=0.5;exitY=0;exitDx=0;exitDy=0;entryX=1;entryY=0.5;entryDx=0;entryDy=0;" edge="1" parent="1" source="ZsFiNb4aICeP-5Nhd5WZ-2" target="ZsFiNb4aICeP-5Nhd5WZ-16">
          <mxGeometry width="50" height="50" relative="1" as="geometry">
            <mxPoint x="360" y="420" as="sourcePoint" />
            <mxPoint x="410" y="370" as="targetPoint" />
          </mxGeometry>
        </mxCell>
        <mxCell id="ZsFiNb4aICeP-5Nhd5WZ-21" value="I2c" style="text;html=1;align=center;verticalAlign=middle;resizable=0;points=[];autosize=1;strokeColor=none;fillColor=none;" vertex="1" parent="1">
          <mxGeometry x="265" y="190" width="30" height="20" as="geometry" />
        </mxCell>
        <mxCell id="ZsFiNb4aICeP-5Nhd5WZ-22" value="" style="shape=image;verticalLabelPosition=bottom;labelBackgroundColor=default;verticalAlign=top;aspect=fixed;imageAspect=0;image=data:image/png,iVBORw0KGgoAAAANSUhEUgAAAIEAAACBCAMAAADQfiliAAAAtFBMVEX////85lz62AD75mb85E7///3752L62gD95FT64T773SL740j2vAD74Df//+/740U+Pj6RkZGfn5/765qvsbi/v780NDSrq6v87KK2trb64C/1twD/25D8++T+/fIsLCz78rb+9sj765H989D564rj4+NsbGxFRUX55nD68739+dj88Kz86YT002H3xgD225f0xk70zA3656/zvR721oTzwz324aL30nfx8vXT09NdXV1UU1QPIJZbAAAE4UlEQVR4nO2ZDXPaOBCGjfwh/CE7DZeWE7WDHciBnaOh1/SS9v//r9tdycYQOp1OLHzT0TtDhiHGeth9tVrJjmNlZWVlZWVlZWVlZWX1u8r3fXqNSOD4+dgEG7YZcXxQyjlPLYElsAQ/JoBKMexIVHXO1J7zBOrqgQmcvNqeuWnKzhI45aoeGMH3M8bmZ/4xZd6ZT5eMRcWgAKAJ44BwkgfIdnryUzFVS7g2HpgAshCfQzh3pdOAOcTwWXBSCTmf//S+EAHOWVT/nPWXGZxCUhS0y+lPWpdlWaeaUQlSgO40sWb76VEi0nIjIvi5nEdiU6Ya0ynhA5GbaRmUF3hOZksrwRjjEQnARIU/G/7RMDa4BzoC8oJM8fZzrhVpQSzmFIN0M8mNpKClWCJA7kEsWPgwmz0IeWCIc2PjHgDoVUqIv1vS79xKlMoFk3cqE6Yhaoh4tNXjLKUQQjNAUkw54Eg5DCRzYoHFQoQgZFAI7AKJKDLGwxyHL2ahFFmWHTGEheEo+M4DeOCOJr4nsyz2PC+OkUIjsAeTE0GZgPMZvm30+KgeAmdmreA7LrjQVwBx7E2VIAwxIlAQ/jY4PlYCFvEVhiLKMg8BJiBiyFqExKwZZ0CwBZRNGCPAREshCIEEu08mAfwpJwLIgR4/CAKNAF6gIOweTfoghXWAe/VcZDERBEqI4KEV0Iz7hcn2HZbeaVNxGSoAIHBdt0MIKQ/7RWmQoGFYDSsKQQtADJgHcoKMdovPA47on7yfMQ/qTSnaHLhuh4Bm1ASDWrGezbUaRcAhxBtBPjwAqCDQdJBRsvgIV+bt9+azN81O6k5JjM2IIIq8UNugR+AGrRHkPqEYTBlrvxi+pW8vsBXTQoIlEERS/IgAY7BLyAeT9mv8bQSQhVYN3qfmCCDCLD7rAyCIkmRx52AWum/WbwE4rS2FBAQiOLZioGoShSD551VFGrJErRgFAVdFVZAOk7ENQfJlwPFeq2Y6DZ4uCG1RJAIhdjoJpgS1IOORlL00BF1J9HQIngw3SSV6UXZBmLTLAiVBAgDUZMPNasD0bGhXBg0AayPmIHk03KX5ekKGCmE6aTsUDMEeAJK7wc9vXqliJwgKAOoh5sDsRFDyvaMo6D4RbIg5eLrIOXuuzRhSr4wBoC4R58Eiv8CeCawwZx0C9esUAYEu+GrWhgeIuIsC7BnijDpErMeYg8s87mhoicRJGdJmhToTyMFX80MXbtQ4tHmNdBTUphH3S9oFTeQOfpLYygcAzjzYmvoTOjvBKJBw9w42eCx8mCmMucZ2r34A/UaFd8eaQAiH04Md9kbgwwquCUwBxNDyVO2BmT67aU9Q9gtcFH1CYCw2glBABGjPiOnAw4qor+TQmawwCoN7AT0AN161s23TO0bTAIt/qRj4CmFwL+CDRUYA6jArZ9QLwz6WNquJqod0JSGAHQc/1A3JA53qULXjbA8WRD31G1LwwvAPf0q3DwBZ2VZfPh5U9qMOdpw2wz9kOXrKA++e/zjSc29FwOfhF1ghPtxe9XR7bXq811q/O9LL5Qme3133tb48wf8uCyPEwFnf9DQGgHN/+77T7f0YBC8fehphKoBu/ux0MwqA83L1/i/S1dU4IQAvXt9/+/792/0YxaDT83r9POLwVlZWVlZWVlZWVlZWVr+9/gN85GlytOWjZwAAAABJRU5ErkJggg==;" vertex="1" parent="1">
          <mxGeometry x="530" y="83.25" width="66.75" height="66.75" as="geometry" />
        </mxCell>
        <mxCell id="ZsFiNb4aICeP-5Nhd5WZ-23" value="actionneur: lampe(s)" style="text;html=1;align=center;verticalAlign=middle;resizable=0;points=[];autosize=1;strokeColor=none;fillColor=none;" vertex="1" parent="1">
          <mxGeometry x="510" y="160" width="120" height="20" as="geometry" />
        </mxCell>
        <mxCell id="ZsFiNb4aICeP-5Nhd5WZ-24" value="" style="endArrow=none;html=1;rounded=0;exitX=0.5;exitY=0;exitDx=0;exitDy=0;entryX=0;entryY=0.5;entryDx=0;entryDy=0;" edge="1" parent="1" source="ZsFiNb4aICeP-5Nhd5WZ-3" target="ZsFiNb4aICeP-5Nhd5WZ-22">
          <mxGeometry width="50" height="50" relative="1" as="geometry">
            <mxPoint x="360" y="420" as="sourcePoint" />
            <mxPoint x="410" y="370" as="targetPoint" />
          </mxGeometry>
        </mxCell>
        <mxCell id="ZsFiNb4aICeP-5Nhd5WZ-25" value="UART" style="text;html=1;align=center;verticalAlign=middle;resizable=0;points=[];autosize=1;strokeColor=none;fillColor=none;" vertex="1" parent="1">
          <mxGeometry x="460" y="190" width="50" height="20" as="geometry" />
        </mxCell>
        <mxCell id="ZsFiNb4aICeP-5Nhd5WZ-26" value="" style="shape=image;verticalLabelPosition=bottom;labelBackgroundColor=default;verticalAlign=top;aspect=fixed;imageAspect=0;image=data:image/png,iVBORw0KGgoAAAANSUhEUgAAAH0AAAB9CAMAAAC4XpwXAAAAdVBMVEX///8jHyAAAAD5+fn29vb8/Pzy8vIFAADu7u7U1NTZ2dne3t7FxcUsKivr6+sgHB2jo6OwsLDl5eWVlJWdnZ1qaGm+vr5xcHB4d3fNzM2NjIxGRUZZWFiHhoa3t7c0MjMSDg9RT1BhYGA9OjsaFBYYFxcOAgdgD02XAAAI5klEQVRoge1aaXeyPBOGgRBZwr4jEET9/z/xnYnKYntX26Lnec/p9cUWlItJZp9o2h/+8Ic/fAlm+rbXRWEYRp1n+yZ7G3Mc1QcBa4hD3cUvZzbzksiGMu0qJzYJsVNFaTnQ5TI3X8jtFBJEEcXGJ/eMOCoEyMJ5FXcGellZX3zDqsoAslfwsxpk4j/8mp9IqDfXQWOE8iuxZ1glNJ9tzS9g9uA9/WUP+m3pW6jWF6zYrryc4KHy361KBe2W5PHicUZcJVkj5MLapWiypFqYQgtbGn8EV0Vmdk2Wre/bMK9s23Ec267ysN3r5AVq+6pvDnQbsqewow+rRpIhrD5Tfb8KG3ytWm2CD+GG7CGxuwVA9rVMXQZQxNuzW1oCvN49/KZfAyTabmP2+qCEegJxAYd2Y3YJ0eoKM0wrdh3bcWPLNNbOLYLzxuyQz//t8qQcljFWDGWSL2w+h43Zy+tfhtci3VmeAn1GcDqe8Wrr3Sy+3JjdVp9+Irhc8i4RSC6uccje3uJwQ3X+L+rrC3Bdqce2Fpcr2Wv4mlvxQ62Ro88fPfIb8CGj0PWQm0DxKIPHmcA3kOJSluen2M8lbtSWC4/mXUAaPSl7lEKxdXZTwCAebztuvBig2JhbI4V/UnY9evyw78PCAPJI+gCgfi79+wHCUU5Eyr0Rzsfpmhy3Vbc77PYX+oDD0EZ27Md21A5wvqzJef84BP8K/kD0gd66cxZnuK1O9HLY1Mo/w248IpWrWHeu41rqLVy8JpsXS06w0NkL/Oz20GRF1sCBsi2BLv5l6rYCxljbObW3VMdtA8eGbVP4rxCPhcAtNqsu6iosmmNRjK+v3ifkmGeZyT5Lw7TYJybmUlvGtIc4jGaRXPbZrAtzPLyTXDPgiDE3bU4NupdM8o2L1kcwB0gTSvbKJIXhlQ2TzxEKGNukHUG81Lv+C5ZXDs1Qeu8x8z/8J5CmixiXpG9mBxiqi52Z1QDwZvZUcmjaKI/aBkC+W3bN3U8l7MF9NzliFxZk7+EbcorPwdj7GvMXRP9qWnpbdsn+AR8g/SgwY0YK25aOnwO1bb9IZIwoSSrNYBVq3+vJNS2BM5Q3NY+wmjhD4zOW1i/kXAx+bBRfDpFjEnlAqfw47oyX6p+5SF+MTo1hHM0XJz0Yha73rxScmYbJmOdqJr4Eoxep2lGYmF32CkJvLMMw6IbrbZ5lIampoV7ZGr4FDaI04jFZKpGZyIWIkRvZHbjv5P8aJK1p+COnjghDDSAiw2As5CNuuo78Y2zQjRTE9vWUgeIahr+XQYarbygxcRUMW+/1oBdC6Bn+q7mZlIcdY7ttF5/RfqNWt4Hep5ZafmaQsAXW7rj0Onj4nRTL2BavGxuzT8h7gDGcE2i/oXaGhATVAG/16IW3tzx3eqSRoKnxclJscrAwECnG+TnfYRsG3Q7EnDazRAc43ddt5nBOZql3YsPBjHOWcjHfNPOahLTrUYhMtY+NquwWe+3w1fd/C1uc5V0fzN5zHgSBJCEtdxXdInkW9nbkWKE3HMqlIdcgbz2yu8p9VwA0G1fzLAMezOJnc+eQr118FHBqKW+DWXdzVLbx6kUPi7blccnlodnp3ie//hGiRc/VoplIQ7pcL3umM7uZNzQfmcyDFfC7pmkH/DD7FvSktKrVqlUOl2TedOsRw342i2se+G/tLuS8Xyi0TScbmuOCPDiihlk5FRVwKheqHvcbzMVykHej93WfXiYJzaAQ/Sqzp99t0EpyBRrbsjVCQ6m5Vw3ewdCSYxGuTN4sgYvfmN38NDQ2MYtB45lgnOi5J3YauwtqHb7xrK4/SLSj07xpkQCY1ImCqpy0XpYJ3NuVS687a3t4+r7mJzRLviHG551bJYPBafrR3dghau50yy85X06MVw96GgdYzlcqmruSwlfIK7OI3xa+guN+8SunoLnsQvVpaP99cvIpvF9ocYc2hTz1mTQtuXn5ANWA3/LIOOwBy/rlwLjnP5GcEEl5Whgb8/aJxg6qPV/e2AWyHxuNgmzYnKiYX5qnd/wQGx9iMi9bcF4vjI1ZKAwWLw3Lrg4nGHO4BhqsqWCsl2HdrNFV2R+e+jXCfsrILayZmlV+HoPy7MPpxq70T3nbuKxWDBVu1WFy+lX/nONDdZtXL8SSsV08lJSOJ1pztfdTo6mxNBzuXYvZrk4geM+WuEaz/Jl/QEVKJm9CbhY96M3bBKc4VkM6CatUykzwV4fZzYTAnz58tV/NOSiLFql1kwGzGUcrbnO5k9AqSUoAiyTDSjEX6GfVZ60yl2eBXno/L7eZorH3iVpbVnJZM82eIg0aVNXTgkzLFSfqdRe/H/h0cuIppLBKDP0EjUkWOeXMtlriZBpKYl63w7cdLovD8kJiqF2exLPx3b/Z0PNArtyEGZIxy/a2nPbELsmVufaFuqXDX3q43OLkQ4h+AuaAq73SpEpFcRgTL2bL/OZWMnejul+uLNTBXfjR6IKaoeuBstEVvcojfC3nE/txwDuOl9GNoltptoXe+qdtVAd1f+zWVeHOTvYjGs8lwbmcuuG4sD30+8Rel+4swtXY/7ioYRG/lIhrWBjQW9r3017ZPQU51/4wIPEG4Dz6TUlL2vwJ/zWzhKil7Q/kJzkUca/Ln58gLvApIrpXHLXwYPvKz/L7jpWJ2RB/9lDaI35c/1NrL/XpcvYGTE2F2mA1HWB2qbzDVrWc26Kq86Z2phVQ2077XcHS6FBqp8YwAX29Zc9+1zXkR5oy35EaGUda8DPaEutVjFFLz3ZdSUWFbLrNZ3RuevEmNHq82JtKZpXLDXqmuRdfAGP6olGFGZXos3cYg0ngU0/XHLg6e4u8TflBPTcF871J9EvGpsI7RjiWdP47JhWW8jGBuBiBCvXyBYeb/oFW+fhb1FSJXTC+axZ8ySyC/srnyOvGvwXm5bDV3BhQR8/edfBir1J5eZg07HD8zNm+Bhcfu+yTJaQGx/ec+wiX1qZwUbvhLexK5/hSUpeaGd9LWn8OalKvk/OQIsC7jp3Y4X224Yb5u+exf/jDH/7f8D/LLIMTzLs3fAAAAABJRU5ErkJggg==;" vertex="1" parent="1">
          <mxGeometry x="330" y="40" width="70" height="70" as="geometry" />
        </mxCell>
        <mxCell id="ZsFiNb4aICeP-5Nhd5WZ-27" value="capteur: proximitée" style="text;html=1;align=center;verticalAlign=middle;resizable=0;points=[];autosize=1;strokeColor=none;fillColor=none;" vertex="1" parent="1">
          <mxGeometry x="307.5" y="20" width="120" height="20" as="geometry" />
        </mxCell>
        <mxCell id="ZsFiNb4aICeP-5Nhd5WZ-28" value="" style="endArrow=none;html=1;rounded=0;entryX=0.5;entryY=0;entryDx=0;entryDy=0;exitX=0.5;exitY=1;exitDx=0;exitDy=0;" edge="1" parent="1" source="ZsFiNb4aICeP-5Nhd5WZ-26" target="ZsFiNb4aICeP-5Nhd5WZ-3">
          <mxGeometry width="50" height="50" relative="1" as="geometry">
            <mxPoint x="350" y="390" as="sourcePoint" />
            <mxPoint x="400" y="340" as="targetPoint" />
          </mxGeometry>
        </mxCell>
        <mxCell id="ZsFiNb4aICeP-5Nhd5WZ-29" value="Sick" style="text;html=1;align=center;verticalAlign=middle;resizable=0;points=[];autosize=1;strokeColor=none;fillColor=none;" vertex="1" parent="1">
          <mxGeometry x="325" y="130" width="40" height="20" as="geometry" />
        </mxCell>
        <mxCell id="ZsFiNb4aICeP-5Nhd5WZ-30" value="" style="shape=image;verticalLabelPosition=bottom;labelBackgroundColor=default;verticalAlign=top;aspect=fixed;imageAspect=0;image=data:image/jpeg,/9j/4AAQSkZJRgABAQAAAQABAAD/2wCEAAkGBwgHBgkIBwgKCgkLDRYPDQwMDRsUFRAWIB0iIiAdHx8kKDQsJCYxJx8fLT0tMTU3Ojo6Iys/RD84QzQ5OjcBCgoKDQwNGg8PGjclHyU3Nzc3Nzc3Nzc3Nzc3Nzc3Nzc3Nzc3Nzc3Nzc3Nzc3Nzc3Nzc3Nzc3Nzc3Nzc3Nzc3N//AABEIAH8AfwMBEQACEQEDEQH/xAAbAAEAAgMBAQAAAAAAAAAAAAAAAQYDBAUHAv/EAEwQAAECBAAGCg0KBAcAAAAAAAEAAgMEBREGEiExQVETFCIyUlRhcZHRFiM2U3SBkpOUsbLB0xU0QkNygoOh0uNidcPwJCVEZIXC4f/EABoBAQEAAwEBAAAAAAAAAAAAAAABAwQFAgb/xAA1EQEAAQIBBwoGAgMBAAAAAAAAAQIDEQQSEyExUWEUIjJBcYGRocHwMzRSgrHhovEkQnIj/9oADAMBAAIRAxEAPwD3AmyDhVvCGBTyYMFojTGloORnOfcslFuamllGWUWubGuVUnK1UZwnZJl7G8CGcUDo96zxbphyrmVXbm2Wg5znG7iSdZK9sGOO1CIIAzooUBEEBARX017mHtbnNOtpsUwXGY2OlI1+oybhaOYsMfQi7odOdeKrdMti3ll6iduPat9GrktVG4re1TAG6hOP5g6Vr10TS69jKqL0bpdZeGy4WFFWNPlhCgG0zF3p4A0nqWS3RnS0ssyjRU4RtlQzlJJJJJuSdK2nDEQQEBAQEBAQNIRUk6AghEEH1CiPhRGxITi17DdrgcoKTrWJmmcYeh0CpipyIiEARWHFiNGvXzFaldObOD6DJr+mox6+tSq9NGcq0xEucVrsRvMMnWfGti3GFLjZVc0l6Zc9e2uICANaKcyAiCAgICAiiIICK7eCU5tWqhjnWhxmFrhygEj++VY7tONLdyG5mXcN7iucXOLjnJuVkaU69aEQQbNOk3z02yXh3BdlLgL2AzlSqrNjFms2pu15sLKMGJK26+UCdJAaPcsOll0eQW+PkdjUjwKkfIU0tXA5Ba4+R2NyPeKkfvQ00tRyC1x8jsckuL1I/ehppajkNrdV5IOD0lxSpeXC61dLUchtbp8jsek+JVM/iQutTS1HIrW6fJBwflNFPqZ/FhfqTS1bzkVv6Z8Ycqs02DJ0iFUoQe1kV7cRhdjHFIJuTmvyDpXumuZqwa1/JqKLWkpccEOAINwdKytFKCdCKlkRzIge3IRmRYqmJxh8o8iCQEVs0+ei0+abMQjlaLEaxpUqpzowZbV6bVefC4xqjMwIkBkXZWmMxz2kPYRYWv8AQ/iC1MIdqbtUTET1+9yDUJg5nxfE4fCVzYNJV7/pG3prhx/y+EmEGkq9/wBG2505nTNvs/sphBnV8ff2oMzPX3035H7CYQmdXx9/abYqGh055P7CajOucff2o2eo8Kc6P2E1JnXOPv7XArc1Hj4JysEwBDZChwHl7ngl9wQLAcxz9CyUxEVtO/XNWTRGGzBV5aPsRs7Kz1LM5roi1gc6r0hEEQQSOUIqEEO3p5lUl6BHEY1GliA6Gx21YuV7C4W7XoBC042S+gqxz6MN0+jdxKjb5zK+ju/WvOplwub48P2jEqPGpX0Z3xE1Lhc3x4ftOx1DjMr6M74iajC5vjw/ZsVR43Keiu+Imowub48P2bFUuNynorviJqMLm+PD9o2Ko8blfRXfETUmbc3x4ftS6t3KwvBJP1xFnp6Xi5l75aOyn1VMWCyuczy0xiOxXncaORBvKoICAgIIdvTzKkr9NbF8oUvZnPa3a0XKxzgfq+DlWnGyX0FWGfRjun0bN5E/WzfnI3WprZOZx80Xku+TR+9G601nM4+abyOub6YyazmcfM/wGqa6IyazmcfM/wAv4EyfuRU1nM94lqf3mOfwovUms5m6fNUKt3KwfBJP1xFmp6Xi5l35aOyn1VJZXOEGzKx8Xtb82g6kG6qCKIggh29PMqS9Bj7L8o0zYMTH2rF397W7XqWn1S+hnHPow3T6N21Q/wBr0OXnUy8/gWqGuW8l3Wmo5/BNp/hy3kO601Lz+Biz/fJbzbutTUc/gYs932W8079SpzzFnr5Y0t5l36k1GFe+PD9qPVu5WB4LJ+uIs9PS8XJu/LR2U+qprK5wgINuVmMmJEObMSkDbVBAQQcoKHUvNVjwpaNIR5iFEiQYcpGc8Q87QNjJOcZFqxrxd65VFM01TGrCfRo9lOD+mBMeR/6ro62LluT7jspwe4tG8cIdaaOs5bk+5ngV6ix4EWPCkIroUHF2R2wN3NzYaVJoqh7pymzVEzFOzgibwgoknMPl5qQfDjMtjMMBpIuLjTqKRRVOwryqxRObVTr7GI4U4PDLtQ+jtTR1PPLcn3eQMK8Hh/pX+jtV0VRy3J93k5VW7k5fwWU9cReqek1rvysdlPqqazOcICKIjrKggAXRR29IFlSdi6YQ/Mv+KmvZYtWnb3u1lXw5/wCavR5qthxBBYaB3P1r7Uv7ax19KG7k/wAG53fliw0t2TzpP8HsNS30XnLY/wDeru/DhLI1UokrbV+5OW8GlP6iw09OXSvfLR2U+qpLM5pY6kVJOhQQqjrKgihtfIgh29PMqkrthD8yP8qmvZYtSjb3u5lPw/tq/EPNFsuGILDQRbB+s/al/bWKvpQ3cn+DX3flhw17p538P2Gq2+i8Zb8eru/DiLI1RCVtq/cjKeDyv9RYqenLpXvlY7KfVUw26yudggm4zKAqgg62fMqsJPIghEQ7enmVJXbCHJIn+VzXssWpTt73cyn4f21ejzLHbwh0rZcLOgx28IdKGdG9YsH3A4PVqxB3Uv7ax19KG7k0xNm53fliw1I7J53LwPYarb6MPOWz/kVd34cO41he2rjBcawibVuq2XBGT8Hlv+6wx05dO78rT2U+qpk6Flc5CqCAg6TS8TcxCf8AVOxRkSJxZK6M2IZFWMQDlBCo7s9hTKvjymLt+XMCG5rnQ2QyXXxbWuSLbla+jmMXTqy2iZpwxjDs4I7K4Azz9X8xAKmj4Ly2n6qvClIwrl+P1Txy0BNHO45bT9VXhSxTWEEjOS74EefqRhvtcbWgjMQRm5QrFEx1PNeVW64zZqnwhldhLJPcXPn5snW6ShFTMmOp75Zbn/afCDsgp3HYvjp8NMydycqtfV/GEmu0sjLOZ+FTWq5lXuV5VZ+r+Lk1GqSsXB+UkYTnujMgwmu3NgC3Gvl8YXqKZzplrXL1E2KbcbcI8nBWRpiAgyS0F0xHZBh5Xvvbov7lJnB6opmqrNh3a5KbUwhnwN7FcIjcusdd15tTjDcy2jMrwaiyNEQNKK+I0ERG5c4OQ6kNjmva5ri1wsQoIRBAQEBAQEBAQWbAKQMxVnTT23hy7Te4yFxFgOi6xXasIb+QW865ndULHVaV8qTc+AQI8NsN0K55DfmB9yxUV5sullVjTUYRtjYp0WG+FEdDiscyI02c1wsQVt44vn5iaZwl8oJtkN0Ec6DDMQBFbkyPGY60RzyC0kEWI0FQEEgXIRYQTe2QICIICCEGzIycxPTUOWloZiRXnJbQNZ1BSZiIxlkot1V1RTTD1ahUqHSKeyWhnGdvoj7Wx3HOfctWqqapxfQWLMWqM2GSVlHQqjOTDsXFjhlrZ9yDnycq8szBV6LK1Nt4oLIoyNitz8x1he6a5p2Na/k1F7bt3qpO4Mz8rjOYGRoY+k1wafGCs8XaZcy5kN2jZrceIxzHlrxYjRdZMcWlVExOEvlEEGGZgCKMYb8fmg54UUvfMoYiqCAgyQIEWYfiQGY7tVwPWpMxD1TRVVOELFTcC6jMFrpp0OWhnLnxnEcgGT81jquRDetZBcq11aoXij0eTpMIslYe6dv4jjdzuc+5YaqpqnW6lmxRZjCl0V5Zn//Z;" vertex="1" parent="1">
          <mxGeometry x="165" y="270" width="50" height="50" as="geometry" />
        </mxCell>
        <mxCell id="ZsFiNb4aICeP-5Nhd5WZ-31" value="" style="endArrow=none;html=1;rounded=0;exitX=0;exitY=0.25;exitDx=0;exitDy=0;entryX=1;entryY=0.5;entryDx=0;entryDy=0;" edge="1" parent="1" source="ZsFiNb4aICeP-5Nhd5WZ-2" target="ZsFiNb4aICeP-5Nhd5WZ-30">
          <mxGeometry width="50" height="50" relative="1" as="geometry">
            <mxPoint x="350" y="210" as="sourcePoint" />
            <mxPoint x="400" y="160" as="targetPoint" />
          </mxGeometry>
        </mxCell>
        <mxCell id="ZsFiNb4aICeP-5Nhd5WZ-32" value="Lapp" style="text;html=1;align=center;verticalAlign=middle;resizable=0;points=[];autosize=1;strokeColor=none;fillColor=none;" vertex="1" parent="1">
          <mxGeometry x="225" y="300" width="40" height="20" as="geometry" />
        </mxCell>
        <mxCell id="ZsFiNb4aICeP-5Nhd5WZ-33" value="" style="shape=image;verticalLabelPosition=bottom;labelBackgroundColor=default;verticalAlign=top;aspect=fixed;imageAspect=0;image=data:image/png,iVBORw0KGgoAAAANSUhEUgAAAHwAAAB8CAMAAACcwCSMAAAAclBMVEXm6e3///9dnOzM0dlKidzp6+3s7e1VmOxZmuxQluz5+vvJztdMlOzi5+3V2eDv7+3y8/WAru3J2O7b3+S/0u6cvu2LtO1upe1koO2Xu+3Q3O6nxO14qu3c5O66z+6yyu5XYGynrbSXnaZnb3qDiZKxtr6wyWbXAAAJq0lEQVRogcWb6aKqOBKAEW4IyKbs4EHP9J1+/1dswCRUVSqIntsz+aVC8qXWrHqn/2PxflD3vJb/Nfx8uQjhCW8t8wdxuXzUh7fh54XLlLkHb3fgPfiF5YIeXP4t+HkfrMsb/KPw8+UYesUf1f8x+PmFui31H8Mfgb8j9VvSH4B/gF7xfwB+0M248lL4V/APxT4m/D58T2xhysfC78IdYgsRimway/r+eNzrcpyy+QdHF3aF34Oz7FnSqW6unR+b4nfXpp4cKtij78C5tsJibL5kLCMflWj+6asZi5Dr7SdwppliuvkpBZsiU/82FUyX34cz6LGNpAOs+VE7Mvh34VYL4dg6ZYYGmPGW8l2ad8Ct6lnzSupN+iGz8O/AqdxF3VN0FElVIqoQ2dfFIdlZOIkxIdoUg+PUvw63ez2X+224+mmM+5a2NO7YiOPghB2OSGwZd0OdhWGoE9z8MauHDvFlTy3P0Rk4yanh3Qd6jfthzOx0Mv9SDn0MlOPfCZ3JtDacsm9AItndptCRSEU43Tr47o3Qj8Bx2+FtE0f6D9uP0cvZw9/wMaHbTmfBseDhbXO1tPV20U/8ACoQuqV4C+5iy76k8cOWotzck9JfwZGnh3ej87jNDk4iRdZutbDXUY8ncKR0UQLv2Z0zYLoAPlqiauddOHo163WMxQ/e2o4ehQ8te9Rn6P09OBK8uEqjPd7cxe3meGDo8oreOO/AoSDhXTubfDgQTRw3LrrueIrMLtxwKLjIjNwu8ZYU4KSb/CCRp56dcPiWaBVctruGpankRX3hgiPBS1U36vgYC++SDSfTQNYpd5WlS3QIhzEuvlTVeOTZtQknWfP0USk+usIWLg44J7hs2JbDEg4hJf9OIznReTjUeqgF91l/EiOaPEheO4UO9i/YuTMLB1oXo7YXa1CR+WTqxPqFcYsIdu7CwmGfB6n6zHv6F100fLGvaceRAxThFVwYT+bgYoh9UuKBfVEPTJI3+vYRar1WlbrMahBmbkhns3/Wqac1q/cNDh6HrVIXl0CQowOn41xez8GiFjwUDBxW0qacGGVOPcf2/Z59WTlHxOrdfAKBptNDdLVb88KrY9EUXTnFq7dTGOrnPbhWFqd11uBus7NN2XDob8rkqZ07xORkz3Rb8WJMldE5jzNw8FD7qG9rUUfuvFBD2l+/sVlBvdDBRnbhykWvVlta6b/WYvDR/EXyihfK6BIErQ1nVGWNKUJ5+i9VAPv5xfb4sHnC4eBowcHuqk4x8cNq6Zl1o1+IHm1qwHl0bUzpCqYZszNr4FC3T7XHJYGL0d8EjwwRmYD6qCi1JIy7c3AVHpaz6+HmCVPICLHlQIZgbUM21ji4YqTUgHpKKaHaseshx1rhk4IPb8JpO3o6bGwuidwLhDrKH4IXZhTXois2HGiiL6L37EP4hJvxtuQWOeRePItUelfyhnU47TqaT31NFVpLw5v3vJ1Mms0MA4lP2XjesIXaUW/Xkx8yh6JwzV5za+SEc41R+GXzLraz28+ELUmeJ6nJqBH8nF0ovNoqqGEzandsDuWGed6yuRqeY+C91R48UxOlDodsBiXX4pp8Y5bEuJJQwzPcJNiFm7kPDvRim7wZX4u2cFePOhznKszRjMyG59tDHWtk/WnWXiCnPocXucHJ2k5vKaGfcwseAFXVvNFLSeT2gdrZ9fBmchgDwR7cWLfHOS5UG0QS2Jg4XNTjAV3Ps2NoQRuegMd6jUpiVg/0EoaWRM4u8URKRzlap2aJDQcepzfSrKl4p0UHeW2xuP4adfh9PcmXNyBFZcHPAfA4PRrgte2yUtqZOK+qIhbXK200RuWW2s8BNLoePWWLAydsdukxmXIWrV5pw2aCwMrtQQD1XnPL+qVc2VWiMjhZXm1bDNB3qldwY90IbyCCPSa7WPtWhbI49oQqyE8EfsqR3s2SLCVTWJF9OWSXX4QtauU5eC0RMPAKi67zu997pIgh5dipvTehH6HN3yoJKgueJcjfjeiypeuAsOzsbZHO2hsI9RYkFjwPEs+CXxKkdy8zu4DWhpTIHh04SI5k3D2s7ShzUEA2i4IgsVep5wTrHcwd7A2PMCuHrl/PFKO+G0r73Cc0BwU49mfrJszmQBBg0Y3aIm7DQ4TeVNb3e11OHnPYNS8pdZhhsy0UG754HI42vR+2HBc47mK5bkyI7ZDCRy+skJMN9xIiutm5nafJ++dptIST2aEkU+AZkXgMfDF6kKOzBnNcEDF232GPho1HOZEH0ORwB3IxR4DPY4aNzu+qs+zt8JUcFGQr4sTBF3tg0WEql4PHmpcW4Q1bHZzsV8GBydGu86L3BPscSOWyHw8cKRbgvJsm+2oF8LvOT70jn5sdGhwMp+30QvfhBI75ZUdCISBaR/AsWRVPtAgGkiga2Lso6tViGsAVBvlF7LQqPckc8NXfieLnBlowjEm/ndMZwxdz0mt9+GZL2NWzddcBz9PliMcvMzo4jkjZNSW6DLVelRqbTsKxNr6RHj49Hbobga8uR82+nCShU415IOnbW73cx5pLNo31re3xjaXIt06cni0nFyf8lAc8PbuSMXzuQBpHft8vN0esq1Lx1cqIquH85IZr0XNq1aLuX0xcAZq5JpNzgtMj7Er30KPVs5u/M3cEPuHf7GFIa7Q67cG16Hh8e+p+aqxrQja6b5hcoEUiglvXFqrEJfus++Uuyg4/Wm+y2PW03AkR3L6woeEc3QvDcojYG3GRTP2hDBm0tvcMpywLbhRv+fyzqaIY58hK43i5kbUUKeM4nWNvLPjkZ5qjSucu6VT79OcEJisfzdBe59IOzaPM3JdANzZVOns9KdiK7XamB+vNrDW9ha4LS97makuxL0cxN5Yuh+iHCmQz18K4K2leAur8AJ2BZhIWxPwGzR4knNerIoJgZ3aTw1Zsg7vgJsfv61785/v7L9dl6Ao1kbMYx9XIIDiAv/z+/fubh1ekAZ7igJ/zA3jx1/f3fzk4ReeO+9aue68Wnc14f/9tH7Bndk3XXW/nbdwzbWJ2PUt8O7NU0M1Ucd4z37lozTQzL+ydkS+8qgqYKryvvYKjiEP2r/C6ZhY/q6idNZuNsQPwk8c3qCxpyt5b++3vPZwzrUP4YyXhcuphuFv1h9h7Kj8C/1z4V2IfgS+rqA/wCVoXfQ4/nbkQeoGu/tDfh05rvnsDnwT5sf+NHf7LWHVU+Qelfgc+F5G/5idJvvPXkR/AlzPPXfXP5Nd/lvoYvvAv1dwBqoLlh7x6+x+S78KfHbjMo5fJqvk82n3239BP4Fsvfvaf2J/Bf1r+AabGnOea7+FhAAAAAElFTkSuQmCC;" vertex="1" parent="1">
          <mxGeometry x="577.5" y="282.5" width="52.5" height="52.5" as="geometry" />
        </mxCell>
        <mxCell id="ZsFiNb4aICeP-5Nhd5WZ-34" value="" style="endArrow=none;html=1;rounded=0;exitX=1;exitY=0.5;exitDx=0;exitDy=0;entryX=0;entryY=0.5;entryDx=0;entryDy=0;" edge="1" parent="1" source="ZsFiNb4aICeP-5Nhd5WZ-2" target="ZsFiNb4aICeP-5Nhd5WZ-33">
          <mxGeometry width="50" height="50" relative="1" as="geometry">
            <mxPoint x="350" y="210" as="sourcePoint" />
            <mxPoint x="400" y="160" as="targetPoint" />
          </mxGeometry>
        </mxCell>
        <mxCell id="ZsFiNb4aICeP-5Nhd5WZ-35" value="RJ11" style="text;html=1;align=center;verticalAlign=middle;resizable=0;points=[];autosize=1;strokeColor=none;fillColor=none;" vertex="1" parent="1">
          <mxGeometry x="490" y="290" width="40" height="20" as="geometry" />
        </mxCell>
        <mxCell id="ZsFiNb4aICeP-5Nhd5WZ-36" value="" style="shape=image;verticalLabelPosition=bottom;labelBackgroundColor=default;verticalAlign=top;aspect=fixed;imageAspect=0;image=data:image/png,iVBORw0KGgoAAAANSUhEUgAAAIIAAACCCAMAAAC93eDPAAAApVBMVEX///9dnOwAAABUXGaHvPR/f39WXmnq7fGIiIjHyc3v8vbm6e1paWxhovUaLEJBbaU7QUjKysojO1mio6aTlZdsdIAoLDBKUFnBwcEaHB+bnqQuMzjQ1d13eX6CuPMkM0RtqO9fhKp1rvD29vW4ubrc3NxBQUFkoe0ODg5bW1ucnJwXFxdTVFY0V4RHcqY9ZpoTHy9Je7pYk90pRWkJEBhMS0s4ODjbiItvAAAD4UlEQVR4nO2a23baMBBFxc3QgIsJrgkloYSYEAhNm7Tw/59WjaFGvkgzYyzyor0WkIdB2dg6lmVJCIfD4XA4HA6Hw+Hg8xT3OrUx7istj0JjbS9+OtbFL81aCf8LrHZo7UsMhdt6BSSbkwGpeEst5LFNFJ5pxSvRg4+fQx1vjynD4ePjm7bwxK/fsrlXMLiDhqeBiRmU9EQk34e+lnU7xffb7bW+8sTH8ZcJEcrPyDMTQI2Ab/gNPfNUYd1YyheGfysbHEkFOLyB1zLiwX9PFExNnhUWUmHBVUAgKSxThWVjIV8shcjYFSRMhblUmPMUSKAKC0Vh/TkKa0Wh0W5/hkLjnMq17JtoJCz0hUwk5ngkMgqTbwg0haWisMQjkVGYTRC4CqRU2ugLzEhYV5ijkbChoAxU0DdZCtMIgabATKWFMYI7ULFGyhZRQY0EnkoLgzU3lVYUeKm0orDOKGCRsKyQpBKJhBWFzO3jpysQUmlbgRAJOwrZVCKRsKPASqVBwUvf2ArZ28eqCt4EBqVp1oqvQIiETiGZvAHTKkchN6kzR0KjkBrARPMiBTyVOgXlOcrE4ytwBqpyBS+5UX33P2DuP6ugoEYCS6VGAc7DH7/hv2fORDUFbKAyKNxKhWFFBU4qNX0hORHD6ieCc/tI6Y4VEsGJhE5hclkocwrGSKCXpqjSpYmTStYFmqHAGKhMw1RCqwYF84zKzmDNmtTZUmCk0poCPZVXUMAmddYU6Km0prBQFMyptKZAf/p4BQVsUmdNITepM0SiogK6zuH7Sip9mUpDZYlCyROevMJXnB8pyd+Gyr8FBS+Y5onyCrWTUVBuFc5E11UISipOE5orKbRaJWuxp1OUKnyh0GvuSHX7okKr+Pzby52Imy4OLKmGlMJNUYGQiH63j9GNZd0Ar+t3dwUFLyg8+J2pCrCs2+ve4Oyb0ztCWbJI28cTofSFZNV8N8DZNA+UqlfZ3EEQE3FU6Ne8dQCIMwqtsqOgJkKMajc4bmBQE1FYFsskQojVplaBQyzyCkgiks0OdxrGUPI9D/Tgju4ro9PeEFVhMssT5BW0QBKf7/M8gIL5i2hfmFEVoJlOQQGOzStdAU2EETjk44LCPXyxe+FR8HCF1TbcJotsDwU6kOPBNgzT825W8CbFlWK8L6z2pN4fxRSFskigCvRtPnoH+r1jGU+0Y5CwsqOQXDD3IQaEU5/OyxSg7YFAB0UB6dzruiR9U1EZA/h1Y5xQRuNZp0DfWqVToKJVoG8wu1ThoL1GkbfZlcHZ/DfQGQjRp242LGNM3mHZM10gyVsuHQ6Hw+FwOBwOh4PFPz8rzZpI7jxcAAAAAElFTkSuQmCC;" vertex="1" parent="1">
          <mxGeometry x="495" y="710" width="150" height="150" as="geometry" />
        </mxCell>
        <mxCell id="ZsFiNb4aICeP-5Nhd5WZ-37" value="" style="shape=image;verticalLabelPosition=bottom;labelBackgroundColor=default;verticalAlign=top;aspect=fixed;imageAspect=0;image=data:image/jpeg,/9j/4AAQSkZJRgABAQAAAQABAAD/2wCEAAkGBwgHBgkIBwgKCgkLDRYPDQwMDRsUFRAWIB0iIiAdHx8kKDQsJCYxJx8fLT0tMTU3Ojo6Iys/RD84QzQ5OjcBCgoKDQwNGg8PGjclHyU3Nzc3Nzc3Nzc3Nzc3Nzc3Nzc3Nzc3Nzc3Nzc3Nzc3Nzc3Nzc3Nzc3Nzc3Nzc3Nzc3N//AABEIAIcAbAMBEQACEQEDEQH/xAAbAAABBQEBAAAAAAAAAAAAAAAFAAECBAcDBv/EAEcQAAEDAwEDBwULCQkAAAAAAAEAAgMEBREGEiExEyJBYXGhsTJRgZHBBxQjNGJjcnOSwtEVFiQzQoKi0uFDRFJUg5Oy8PH/xAAZAQEAAwEBAAAAAAAAAAAAAAAAAgMEBQH/xAAyEQACAgECAwUGBQUAAAAAAAAAAQIDBBExBSFBEkJRkaEGFBUygfATUmFx4UNisdHx/9oADAMBAAIRAxEAPwDcEBF5wN3FASQCQCQCKAYHPnCAdAJAJAJARBy444ICSASAZzg3igItGd5QE89yAqTXS3U5xPX0sZ8z5mj2oCq/UllZxuVOfouz4IDi7VVkzj38Du6I3n2ICLtWWNpGa0+iCT+VAP8AndYv86f9iT+VATbqqyO/v7B9Jjh4hAdmahsz+FzpR9KUN8UBairKepx73qIZQeGxID4ICwBhAOgEgGIygIzP5OJ8mCdhpOPPgIDLKKol1aHVV1uRp3POY6djvg4x0DB49qAvN0VOfitdA4fLiLfAlAMdG3hvB9A4dUrx9xAcn6Yu7OLKU9k/9EBxNjuYdh0cBP1oQHVmm7q8Athhx9cEB1GlroeIpW9sp9gQExpOtAzNPStHydp33QgOT9OW+PnXC8RQtHyGt7y72ID12mH0EdI2G2XCWuh2yDJLIX7+o8MbuAQB5AJAJAcqrfTSj5B8EBi+lvisX0QgNUsx/RmdiAKYQEJGjG9o9SACXTDQcNaOwBABZp5mtOzI4dhQAepqKov+NTY83KFADqrlX+XI93a4lADKuAckTgZ7EB7/ANzNuzZ4B8472oD3SASASAZwDhgjIPQgMf1DTDR1597UsQnoXsEkYLiHx5J5ud+cY3H/ANO3HwbMiHbgYr86umz8OS56ano9O62tkzGwva+J+P2nsx3kLyzBtr3PK+IUzenNfueviuNPK0FhJB8xB9qyuLXQ2qSfUm+oZs+S/wCyvNGe6gS7VMIB2nEdrHfgvVCT2RFyit2AZ6ym2T8J/CVL8GzwIO6td5AmerptrJk7lNY1z2iQeXQt5IpVNwo2gkyHd2DxKmsO59Ct5+Ou8Bq69UpaY4sOceHOz4KyPD7ZeBH3+vdJ/wCDR/csgrHWk1FW+JsYkLYoY27xu3lzid538ABjr6KMjHljz7Ety7GyYZEHOG2uh7pUGgSARQES4+ZAY7dZ7lrWrmrqajZHCzmQMc7ZcWDPHozknzY4da63D8+GPFwmtzlZ3D5X2KyD6aaFS12e6UNQ733bqljSPKbGXj1tyF1HnY9i5SOFm8OynDlDUMuFMw/DMjjPzjQ096p7UJdUcKWNmVv5ZL6MQdRu8g0/7pavexB9CH4+ZHeUl9WDLvDBsZJbnO4bS9SjryR0KbLXHWcm2Ap46cN4M9as0RohKeoOk5DJ3x9yi+wjZBWPZM5mjmn+LUk0v1cJd4BRdlceqNdddz6MIWrR99uE42KCSJv+KbDB37+5VvPpr566mpYdslppobZpS2yWO3RUNRNHJI95dzMjBxwGeO4Lj5mT7zb+IlobsLF92q7GuvPUPrKaxIBjwQDY2uOUBimlJJIomujke13SWnGUBqdmcZadrpDtOxxQBTo3EoCtPTRyEhzWntaCvdWeaIB3OgpW+VDE7HzbU7T8Rogb+h07ctt9O4jzsCdqXiNEV3XrkXYhoKZh8+/2JqxoirV6juGzhrKdo6mE+JXh6CZ71dHN2hXPj6DyYDd3oCAP+53UcvLETtE8s/e87TjzDxKA0ZAJAJAJAZBcaKLSN295Vcj3U0vPp59nPNz5LscCFfXj22R7UFqiizIqrl2ZvRnudO3S3zQNZFW07n48nlAHD0Heq5VTh8yaJwurs+SSYfY5r/Ic130TlQLB3A44IAJdmnB3IAFUMOydyAEyREv8koCrVsawc4tHaUXMN6Aivngjgd8K0kf4d6ujj2y2iymWRTHk5I9d7ldunkp/ynN8HAJHCFhPOecYJPmHf2dMbKp1S7M1oyVdsLY9qD1Ro6rLBIBIBIDGtXXd+qa+eSioJnU1KTEx7WlxkAO92BvxnuXa4VlVVJwsempxuJ4t1k42VrVJAXT3NrC0SSMczdhjy0t9S61sYTjy5o4OXOyldpcme1ZXVrAAKuQ46HtY7xBXOeHS+hkjx7Oh3tfodRdK8DdNF6YW+xQ9xqLl7S5fggNeLpcsbqiIdkOPapxwaV0NFfHMi3fl+wDmuNxxvqvU1T90q/Ki5cRvl3n9/QHy1tY/INQc9gU1RBbJeRZ7xZLeT8wdUVVSMjl3+jAU1HTY9ioy5yWvqV6KCquVY2Gminq5sjmRtMjh+A61JTrrfam/M0xqlJaQib/oehq7TYqajr4xHK4udgOB2Sd+D148y4OffC+9zhsdXCplTSoy3PSLGaxIBIBIDGtMVc1JLMI3DZ5Z/McMjyigNDpKejusDH11HBKfnGB2OzKlGUo7PQjKEZLSS1Osmm7U/wAml5P6uV7O4HCuWVcu8Y58Mw5/NWvIrSaXoscz3w3snJ8cqazrvEzS4FgP+n6sC3PS9MfKnqx/qM/lUviF32j2PBMOO0fVg382LOB8PW1f2h7Gp8Qv8S1cKxV3fU5/kHSkZxI6rlPm2pB+Ci8699S1YGOu6KWLStKMx2TlnDgZWB//ACJVUsi2W8mXxoqjtFEH6mnpYi210cFM0cOnHoGAqm29y3TQhoG73O7a7iNyrZZ2x0sxYw7mN8ng0bs7+PFeA1xAJAJAQJLju4IDJKu2P09e5aSslYGzyPlp5CcCRpOcdozghSUJNapciLnFPRs0CwD9EZ5sKJILIBnnoQAW7g7JBQHn6kc0oAW6PnoCvVw5HBAD6hrWQkuc1oA3l3AL1JvkjxtLc9D7mFjnddHXwjYpGxPgizxlcXDJ6gNkjr9G9KLi9GtBGSktUzTl4eiQEXAncEA+McEBjevr5FfrhOyCB4goHOh5Y/tkHDj1AEYC7nB7YJShJ7nF4rVY5xnFckgRpq4V9NUhtNWyxtHBuTsn0LoZGJVNc0cmzMsx0pQf3+x72DUdzjaA8RS9e05njtLly4dDoz2HtNJfPDyZYGqKvHPpR+7MD9wKt8NfRmiPtPQ94P0BF41bVgYbQ7vlPb+K9XDV1f35l0ePws+SPn/wAzaprSCDSMb6Qp/DYeL9Ca4vJ9F6g6TUtec7McTf+9imuH1fr5/wePidz8F9P5B1ZqG4vzl4HUP6YVixKY91eoWTdPeb+iSKD7hU1EjIhNI4ybiwdJ6ukrRVXCL1eiXkGm1y1b8zeNBwVNBp+ioq2B0Umy54B473E4I6DvBXEz7YW5EpQ2OrhVyrpUZb8z0qxmoSASASAx6w1po7rcgYmSMNZNkHcf1h4FAeupdO2O5AVTKH3tKf2oHcn3DcfSFprzL4LRS5GW7Cx7lpOOp1fpGNv6i4Tj66Nr8fZDVeuJWdUjlT9nMSWza+v+ys/S1W3hXwu7adzfvFWriX9pjl7Lw7tnoB7npiuf8A29N/EPYpLia/KWVezrr/AKnp/IO/M2vmGDU0rOvnH8E+Jr8ppjwXTv8AoM3QLwc1N6p2DpAg9peovib6RNC4TDrIT9I6Zpjt1t2nnxxYx4AP2Wk96pnxC2W2iNMMGqH6nSmuVj0/mSxWoOmA/WvGD9o5cslls7PmepqhXGHyotaB1FddQa7f+UZxyMVulMcEQ2WNPKRDOOJPWT6lWTNTQCQCQDOcGjJQGR1Fultt+rIpSCKid80Lh+21zifWM70B7vT42aRvYgC29AOTuQAa752ThAedqgS0gkoAaIsu4D1ICvWQZ6EANqYgyBxKAPe5FZ6kXWpvcgDKZ1O6nhzxkJc0kjqGxjrz1IDVEAkAkBzlYHtIQHndQ6chu1Pyc7d43tcNxafOD0HrQHkzQavsRxba81MA4R1DBJ3nf3oBhrrUdGdm4WGGTHTE5zPxQHQe6g1nxiw1LD07EmfFoQFeq90egqGkm2VzAOJOzjxQFCTW1A8YFHU+nCAqu1Yz+wt8jyeGSfwQHB94vNcdmC3MjHQS0k+PsQFu36WvN2kaa8vdHnJj4NPaBxQGr2C2fk2lbG52TjzbggCqASAY8EAyAlxG9AQMbDxaEBykooJPLjae0ICpLZKB+dqnjJ+igOH5tW1wwaWMDzbKAiNK2of3SP1IDrHp22x+TTR/ZQFuK2UkXkQMHoQFhrGt3NaAEBIdyAkgEgEgGAQDoBIBICOzzsoCSASASASAYhAOgEgEgP/Z;" vertex="1" parent="1">
          <mxGeometry x="520" y="750" width="40" height="50" as="geometry" />
        </mxCell>
        <mxCell id="ZsFiNb4aICeP-5Nhd5WZ-38" value="" style="endArrow=none;html=1;rounded=0;entryX=0;entryY=1;entryDx=0;entryDy=0;exitX=0.25;exitY=0;exitDx=0;exitDy=0;" edge="1" parent="1" source="ZsFiNb4aICeP-5Nhd5WZ-36" target="ZsFiNb4aICeP-5Nhd5WZ-8">
          <mxGeometry width="50" height="50" relative="1" as="geometry">
            <mxPoint x="350" y="570" as="sourcePoint" />
            <mxPoint x="400" y="520" as="targetPoint" />
          </mxGeometry>
        </mxCell>
        <mxCell id="ZsFiNb4aICeP-5Nhd5WZ-39" value="Base de donné" style="text;html=1;align=center;verticalAlign=middle;resizable=0;points=[];autosize=1;strokeColor=none;fillColor=none;" vertex="1" parent="1">
          <mxGeometry x="380" y="765" width="100" height="20" as="geometry" />
        </mxCell>
        <mxCell id="ZsFiNb4aICeP-5Nhd5WZ-40" value="RJ45" style="text;html=1;align=center;verticalAlign=middle;resizable=0;points=[];autosize=1;strokeColor=none;fillColor=none;" vertex="1" parent="1">
          <mxGeometry x="480" y="650" width="40" height="20" as="geometry" />
        </mxCell>
        <mxCell id="ZsFiNb4aICeP-5Nhd5WZ-41" value="" style="shape=image;verticalLabelPosition=bottom;labelBackgroundColor=default;verticalAlign=top;aspect=fixed;imageAspect=0;image=data:image/png,iVBORw0KGgoAAAANSUhEUgAAAIIAAACCCAMAAAC93eDPAAAApVBMVEX///9dnOwAAABUXGaHvPR/f39WXmnq7fGIiIjHyc3v8vbm6e1paWxhovUaLEJBbaU7QUjKysojO1mio6aTlZdsdIAoLDBKUFnBwcEaHB+bnqQuMzjQ1d13eX6CuPMkM0RtqO9fhKp1rvD29vW4ubrc3NxBQUFkoe0ODg5bW1ucnJwXFxdTVFY0V4RHcqY9ZpoTHy9Je7pYk90pRWkJEBhMS0s4ODjbiItvAAAD4UlEQVR4nO2a23baMBBFxc3QgIsJrgkloYSYEAhNm7Tw/59WjaFGvkgzYyzyor0WkIdB2dg6lmVJCIfD4XA4HA6Hw+Hg8xT3OrUx7istj0JjbS9+OtbFL81aCf8LrHZo7UsMhdt6BSSbkwGpeEst5LFNFJ5pxSvRg4+fQx1vjynD4ePjm7bwxK/fsrlXMLiDhqeBiRmU9EQk34e+lnU7xffb7bW+8sTH8ZcJEcrPyDMTQI2Ab/gNPfNUYd1YyheGfysbHEkFOLyB1zLiwX9PFExNnhUWUmHBVUAgKSxThWVjIV8shcjYFSRMhblUmPMUSKAKC0Vh/TkKa0Wh0W5/hkLjnMq17JtoJCz0hUwk5ngkMgqTbwg0haWisMQjkVGYTRC4CqRU2ugLzEhYV5ijkbChoAxU0DdZCtMIgabATKWFMYI7ULFGyhZRQY0EnkoLgzU3lVYUeKm0orDOKGCRsKyQpBKJhBWFzO3jpysQUmlbgRAJOwrZVCKRsKPASqVBwUvf2ArZ28eqCt4EBqVp1oqvQIiETiGZvAHTKkchN6kzR0KjkBrARPMiBTyVOgXlOcrE4ytwBqpyBS+5UX33P2DuP6ugoEYCS6VGAc7DH7/hv2fORDUFbKAyKNxKhWFFBU4qNX0hORHD6ieCc/tI6Y4VEsGJhE5hclkocwrGSKCXpqjSpYmTStYFmqHAGKhMw1RCqwYF84zKzmDNmtTZUmCk0poCPZVXUMAmddYU6Km0prBQFMyptKZAf/p4BQVsUmdNITepM0SiogK6zuH7Sip9mUpDZYlCyROevMJXnB8pyd+Gyr8FBS+Y5onyCrWTUVBuFc5E11UISipOE5orKbRaJWuxp1OUKnyh0GvuSHX7okKr+Pzby52Imy4OLKmGlMJNUYGQiH63j9GNZd0Ar+t3dwUFLyg8+J2pCrCs2+ve4Oyb0ztCWbJI28cTofSFZNV8N8DZNA+UqlfZ3EEQE3FU6Ne8dQCIMwqtsqOgJkKMajc4bmBQE1FYFsskQojVplaBQyzyCkgiks0OdxrGUPI9D/Tgju4ro9PeEFVhMssT5BW0QBKf7/M8gIL5i2hfmFEVoJlOQQGOzStdAU2EETjk44LCPXyxe+FR8HCF1TbcJotsDwU6kOPBNgzT825W8CbFlWK8L6z2pN4fxRSFskigCvRtPnoH+r1jGU+0Y5CwsqOQXDD3IQaEU5/OyxSg7YFAB0UB6dzruiR9U1EZA/h1Y5xQRuNZp0DfWqVToKJVoG8wu1ThoL1GkbfZlcHZ/DfQGQjRp242LGNM3mHZM10gyVsuHQ6Hw+FwOBwOh4PFPz8rzZpI7jxcAAAAAElFTkSuQmCC;" vertex="1" parent="1">
          <mxGeometry x="730" y="505" width="110" height="110" as="geometry" />
        </mxCell>
        <mxCell id="ZsFiNb4aICeP-5Nhd5WZ-42" value="" style="shape=umlActor;verticalLabelPosition=bottom;verticalAlign=top;html=1;outlineConnect=0;fillColor=#CC0000;" vertex="1" parent="1">
          <mxGeometry x="760" y="540" width="10" height="30" as="geometry" />
        </mxCell>
        <mxCell id="ZsFiNb4aICeP-5Nhd5WZ-43" value="utilisateur" style="text;html=1;align=center;verticalAlign=middle;resizable=0;points=[];autosize=1;strokeColor=none;fillColor=none;" vertex="1" parent="1">
          <mxGeometry x="730" y="602.25" width="70" height="20" as="geometry" />
        </mxCell>
        <mxCell id="ZsFiNb4aICeP-5Nhd5WZ-44" value="" style="endArrow=none;html=1;rounded=0;entryX=1;entryY=0.5;entryDx=0;entryDy=0;exitX=0;exitY=0.5;exitDx=0;exitDy=0;" edge="1" parent="1" source="ZsFiNb4aICeP-5Nhd5WZ-41" target="ZsFiNb4aICeP-5Nhd5WZ-8">
          <mxGeometry width="50" height="50" relative="1" as="geometry">
            <mxPoint x="730" y="660" as="sourcePoint" />
            <mxPoint x="780" y="610" as="targetPoint" />
          </mxGeometry>
        </mxCell>
      </root>
    </mxGraphModel>
  </diagram>
</mxfile>
